<?xml version="1.0" encoding="UTF-8"?>
<!-- Generator: visioncortex VTracer 0.6.4 -->
<svg version="1.1" xmlns="http://www.w3.org/2000/svg" width="2000" height="2000">
<path d="M0 0 C660 0 1320 0 2000 0 C2000 660 2000 1320 2000 2000 C1340 2000 680 2000 0 2000 C0 1340 0 680 0 0 Z " fill="#004E7A" transform="translate(0,0)"/>
<path d="M0 0 C0.91 0.31 1.82 0.62 2.75 0.94 C5.89 2.42 7.66 4.44 10 7 C10.51 7.51 11.03 8.02 11.55 8.54 C29.41 27.18 35.39 55.68 38.25 80.44 C38.38 81.51 38.38 81.51 38.5 82.6 C40.14 97 40.38 111.39 40.38 125.88 C40.38 127.44 40.38 127.44 40.38 129.04 C40.38 148.69 38.93 167.93 35.31 187.25 C35.18 187.94 35.06 188.64 34.93 189.36 C32.43 202.82 29.02 215.91 25 229 C24.47 230.79 23.93 232.58 23.4 234.38 C21.17 241.77 18.83 248.95 15.46 255.91 C13.86 259.29 12.4 262.73 10.95 266.18 C-1.96 296.77 -1.96 296.77 -9.61 308.71 C-10.98 310.97 -12.13 313.25 -13.27 315.64 C-15.94 321.02 -19.04 326.03 -22.31 331.06 C-23.55 332.99 -24.79 334.92 -26.04 336.85 C-26.68 337.85 -27.33 338.85 -27.99 339.88 C-30.05 343.08 -32.09 346.28 -34.12 349.5 C-40.37 359.35 -46.63 369.15 -53.52 378.57 C-55.99 381.94 -58.32 385.4 -60.66 388.86 C-67.42 398.87 -74.56 408.49 -82 418 C-82.94 419.2 -83.87 420.41 -84.8 421.61 C-99.96 441.07 -115.76 459.87 -132.62 477.87 C-133.25 478.54 -133.87 479.2 -134.51 479.89 C-135.72 481.17 -136.93 482.46 -138.14 483.75 C-141.57 487.4 -144.81 491.14 -148 495 C-149.32 496.35 -150.64 497.69 -152 499 C-151.01 498.34 -150.02 497.68 -149 497 C-148.34 497 -147.68 497 -147 497 C-145.98 496.02 -144.98 495.02 -144 494 C-142.74 493.02 -141.45 492.07 -140.16 491.14 C-139.41 490.61 -138.66 490.07 -137.89 489.52 C-137.1 488.96 -136.31 488.39 -135.5 487.81 C-134.7 487.23 -133.89 486.66 -133.06 486.06 C-129.52 483.5 -125.96 480.96 -122.37 478.47 C-121.38 477.78 -120.39 477.09 -119.38 476.38 C-118.52 475.78 -117.66 475.19 -116.77 474.59 C-116.19 474.06 -115.6 473.54 -115 473 C-115 472.01 -115 471.02 -115 470 C-112.97 468.16 -112.97 468.16 -110.06 466.06 C-109.54 465.68 -109.02 465.31 -108.48 464.92 C-107.31 464.07 -106.14 463.24 -104.96 462.4 C-102.82 460.87 -100.71 459.31 -98.59 457.74 C-97.08 456.64 -95.57 455.54 -94.06 454.44 C-92.98 453.63 -92.98 453.63 -91.88 452.81 C-86.71 449.1 -86.71 449.1 -83.11 448.6 C-81 449 -81 449 -79.12 450 C-77.65 452.62 -77.61 454.71 -78.12 457.65 C-79.86 462.3 -83.3 465.76 -86.57 469.4 C-88.08 471.09 -89.56 472.8 -91.03 474.51 C-93.78 477.7 -96.54 480.88 -99.3 484.05 C-104.22 489.69 -109.12 495.34 -114 501 C-114.52 501.6 -115.04 502.2 -115.57 502.82 C-117.07 504.57 -118.57 506.31 -120.06 508.06 C-120.92 509.06 -121.78 510.07 -122.66 511.1 C-125.04 513.96 -125.04 513.96 -127.04 517.07 C-128.95 519.92 -130.99 522.35 -133.31 524.88 C-135.98 527.78 -138.62 530.7 -141.19 533.69 C-145.21 538.31 -149.41 542.76 -153.6 547.22 C-158.2 552.13 -162.75 557.08 -167.29 562.04 C-171.67 566.83 -176.09 571.6 -180.49 576.37 C-181.97 577.97 -183.45 579.58 -184.93 581.18 C-190.86 587.62 -196.82 594.02 -202.79 600.42 C-206.52 604.41 -210.24 608.42 -213.94 612.44 C-219.66 618.65 -225.43 624.81 -231.21 630.96 C-234.8 634.78 -238.37 638.61 -241.94 642.44 C-264.1 666.19 -264.1 666.19 -272.12 674.09 C-274.63 676.64 -276.93 679.33 -279.25 682.04 C-281.72 684.81 -284.38 687.39 -287.03 690 C-289.57 692.58 -291.92 695.32 -294.29 698.07 C-296.47 700.53 -298.81 702.82 -301.16 705.13 C-302.93 706.93 -304.58 708.79 -306.22 710.72 C-310.58 715.73 -315.3 720.35 -320.04 725 C-323.27 728.19 -326.39 731.4 -329.34 734.84 C-334.63 740.98 -340.5 746.54 -346.26 752.22 C-352.93 758.83 -359.22 765.6 -365 773 C-364.04 772.95 -364.04 772.95 -363.06 772.91 C-341.04 771.9 -319.04 771.89 -297 772 C-295.87 776.68 -295.87 776.68 -297.06 779.6 C-299.44 782.54 -301.68 783.76 -305.06 785.44 C-312.86 789.44 -320.27 793.91 -327.68 798.58 C-337.7 804.87 -347.86 810.81 -358.3 816.36 C-359.45 816.97 -360.59 817.58 -361.76 818.21 C-364.03 819.41 -366.31 820.62 -368.59 821.81 C-374.52 824.96 -380.04 828.32 -385.48 832.25 C-390.13 835.48 -395.08 838.21 -400 841 C-401.73 841.99 -403.45 842.97 -405.18 843.96 C-406.95 844.98 -408.73 845.99 -410.5 847 C-415.97 850.12 -421.42 853.28 -426.88 856.44 C-436.53 862.01 -446.21 867.55 -455.9 873.08 C-464.03 877.71 -472.12 882.39 -480.19 887.12 C-488.28 891.87 -496.43 896.5 -504.62 901.06 C-512.5 905.44 -520.31 909.9 -528.06 914.5 C-528.94 915.02 -529.82 915.54 -530.73 916.08 C-532.53 917.15 -534.33 918.22 -536.13 919.3 C-541.42 922.44 -546.7 925.57 -552 928.69 C-553.01 929.29 -554.02 929.89 -555.06 930.51 C-556.01 931.07 -556.96 931.62 -557.94 932.2 C-558.77 932.69 -559.61 933.19 -560.46 933.69 C-563.24 935.12 -566.02 936.08 -569 937 C-568.67 938.32 -568.34 939.64 -568 941 C-567.45 941.08 -566.9 941.15 -566.33 941.23 C-559.88 942.11 -553.44 943.04 -547 944 C-546.18 944.12 -545.36 944.25 -544.52 944.37 C-542.34 944.71 -540.17 945.07 -538 945.44 C-536.76 945.64 -535.52 945.85 -534.25 946.06 C-530.64 947.1 -528.63 948.33 -526 951 C-525.63 955.75 -527.04 958.42 -530 961.94 C-537.68 970.04 -546.44 976.83 -555.25 983.63 C-556.86 984.89 -558.46 986.18 -560.05 987.47 C-589.87 1011.29 -625.24 1025.88 -662.3 1033.95 C-717.78 1046.08 -763.89 1082.53 -804 1121 C-804.62 1121.58 -805.24 1122.17 -805.87 1122.77 C-815.94 1132.48 -819.15 1145.14 -823.01 1158.23 C-825.18 1165.55 -827.64 1172.6 -830.74 1179.57 C-832.38 1183.28 -833.46 1186.88 -834.42 1190.81 C-835.41 1194.52 -836.75 1198.1 -838.08 1201.71 C-838.38 1202.51 -838.67 1203.32 -838.98 1204.15 C-839.6 1205.85 -840.23 1207.54 -840.86 1209.23 C-841.81 1211.79 -842.74 1214.35 -843.68 1216.92 C-848.71 1230.57 -848.71 1230.57 -851.53 1236.52 C-854.85 1243.57 -857.27 1250.95 -859.85 1258.3 C-864.17 1270.64 -868.57 1282.87 -873.94 1294.81 C-877.24 1302.26 -879.74 1309.92 -882.26 1317.66 C-884.52 1324.62 -886.93 1331.36 -890 1338 C-890.41 1338.91 -890.82 1339.82 -891.24 1340.75 C-893.57 1345.71 -895.81 1349.35 -900 1353 C-900.6 1353.66 -901.2 1354.32 -901.82 1354.99 C-904.27 1357.25 -906.25 1358.11 -909.38 1359.23 C-910.43 1359.61 -911.49 1360 -912.58 1360.4 C-913.71 1360.8 -914.84 1361.21 -916 1361.62 C-946.43 1373 -974.17 1390.2 -997.54 1412.91 C-1000 1415 -1000 1415 -1003.25 1416.74 C-1008.22 1419.46 -1011.9 1423.54 -1015.81 1427.56 C-1016.57 1428.33 -1017.34 1429.1 -1018.12 1429.89 C-1024.39 1435.82 -1024.39 1435.82 -1026.25 1443.88 C-1026.2 1446.81 -1026.09 1448.76 -1025 1451.5 C-1022.86 1456.84 -1023.19 1462.91 -1025.44 1468.19 C-1028.78 1474.05 -1035.48 1479.24 -1041.8 1481.55 C-1048.52 1482.92 -1055.64 1483.47 -1062.02 1480.68 C-1068.91 1476.08 -1074.15 1470.25 -1076 1462 C-1076.71 1453.34 -1074.45 1445.85 -1069 1439 C-1064.62 1434.75 -1060.67 1431.76 -1054.45 1431.76 C-1053.15 1431.74 -1053.15 1431.74 -1051.83 1431.71 C-1050.04 1431.7 -1048.24 1431.69 -1046.44 1431.7 C-1041.53 1431.58 -1038.02 1431.31 -1034.33 1427.66 C-1031.6 1424.26 -1029.46 1420.54 -1027.31 1416.75 C-1026.27 1414.95 -1025.22 1413.16 -1024.16 1411.36 C-1023.64 1410.46 -1023.11 1409.57 -1022.57 1408.64 C-1020.21 1404.67 -1017.71 1400.8 -1015.19 1396.94 C-1014.73 1396.23 -1014.27 1395.52 -1013.79 1394.79 C-1012.91 1393.45 -1012.04 1392.11 -1011.16 1390.77 C-1007.29 1384.86 -1003.53 1378.88 -999.86 1372.84 C-999 1371.43 -999 1371.43 -998.13 1370 C-996.98 1368.12 -995.84 1366.23 -994.71 1364.35 C-991.83 1359.64 -989.01 1355.82 -985 1352 C-983.66 1350.07 -982.37 1348.11 -981.12 1346.12 C-975.53 1337.68 -971 1333.32 -961.88 1329.06 C-954.38 1325.64 -954.38 1325.64 -949.59 1319.17 C-947.54 1311.6 -948.39 1306.62 -952.23 1299.86 C-953.06 1298.48 -953.92 1297.1 -954.8 1295.75 C-957.59 1291.33 -958.74 1288.38 -958 1283 C-956.85 1280.02 -956.85 1280.02 -955.06 1276.81 C-954.72 1276.19 -954.38 1275.58 -954.02 1274.94 C-944.48 1258 -934.01 1241.55 -923.67 1225.09 C-913.32 1208.58 -903.3 1191.87 -893.3 1175.14 C-889.87 1169.41 -886.35 1163.73 -882.81 1158.06 C-875.58 1146.46 -868.72 1134.65 -861.83 1122.84 C-859.33 1118.56 -856.81 1114.3 -854.25 1110.06 C-845.48 1095.51 -836.9 1080.85 -828.31 1066.19 C-827.95 1065.57 -827.58 1064.94 -827.21 1064.3 C-824.26 1059.26 -821.3 1054.22 -818.35 1049.18 C-816.99 1046.85 -815.62 1044.52 -814.25 1042.19 C-813.88 1041.56 -813.51 1040.92 -813.13 1040.27 C-811.32 1037.18 -809.46 1034.13 -807.54 1031.11 C-804.87 1026.86 -802.5 1022.48 -800.12 1018.06 C-784.34 989.07 -766.5 961.02 -748.07 933.64 C-745.22 929.39 -742.53 925.05 -739.85 920.69 C-732.85 909.33 -725.5 898.31 -717.74 887.45 C-714.76 883.26 -711.82 879.03 -708.88 874.81 C-678.56 831.5 -678.56 831.5 -666.94 817.52 C-662.1 811.67 -657.47 805.7 -652.94 799.61 C-646.04 790.35 -639.02 781.18 -632 772 C-631.25 771.02 -631.25 771.02 -630.49 770.03 C-619.83 756.09 -609.1 742.18 -597.61 728.91 C-592.84 723.4 -588.25 717.83 -583.85 712.03 C-578.95 705.58 -573.8 699.32 -568.67 693.05 C-565.94 689.7 -563.22 686.35 -560.5 683 C-559.42 681.67 -558.34 680.34 -557.26 679.02 C-555.05 676.3 -552.85 673.58 -550.64 670.86 C-544.92 663.8 -539.17 656.77 -533.33 649.8 C-531.01 647.01 -528.72 644.2 -526.44 641.38 C-522.84 636.96 -519.07 632.73 -515.23 628.52 C-512.99 625.99 -510.86 623.39 -508.75 620.75 C-504.09 614.99 -499.07 609.62 -494.01 604.22 C-491.16 601.18 -488.39 598.08 -485.67 594.92 C-483.65 592.6 -481.57 590.33 -479.5 588.06 C-476.08 584.27 -472.89 580.38 -469.79 576.33 C-463.29 567.87 -456.29 559.98 -449 552.21 C-445.11 548.06 -441.38 543.79 -437.69 539.47 C-436.17 537.69 -434.65 535.91 -433.12 534.12 C-432.61 533.52 -432.09 532.91 -431.55 532.29 C-427.77 527.87 -423.91 523.53 -420 519.22 C-418.19 517.21 -416.4 515.17 -414.62 513.12 C-411.22 509.21 -407.71 505.39 -404.2 501.58 C-401.17 498.29 -398.2 494.97 -395.25 491.62 C-392.25 488.27 -389.15 485.34 -385.68 482.48 C-381.29 478.61 -377.67 473.98 -374.25 469.25 C-368.81 461.88 -362.5 455.17 -355.64 449.11 C-348.87 443.08 -342.48 436.67 -336.07 430.25 C-333.94 428.13 -331.81 426.02 -329.68 423.9 C-328.29 422.52 -326.91 421.14 -325.53 419.76 C-324.91 419.14 -324.28 418.53 -323.64 417.89 C-320.09 414.33 -316.86 410.64 -313.71 406.71 C-309.31 401.25 -304.53 396.29 -299.53 391.38 C-298 389.88 -296.49 388.38 -294.97 386.87 C-291.76 383.68 -288.54 380.49 -285.31 377.31 C-281.56 373.61 -277.81 369.9 -274.07 366.18 C-272.59 364.71 -271.1 363.25 -269.61 361.79 C-265.11 357.31 -260.95 352.88 -257.26 347.71 C-255.48 345.29 -253.43 343.22 -251.29 341.12 C-250.43 340.28 -249.58 339.44 -248.71 338.58 C-247.83 337.73 -246.96 336.88 -246.06 336 C-244.32 334.29 -242.58 332.59 -240.85 330.88 C-240.08 330.13 -239.32 329.38 -238.54 328.62 C-236.62 326.64 -234.85 324.66 -233.07 322.57 C-228.03 316.76 -222.51 311.42 -217.05 306.01 C-215.03 304 -213.01 302 -210.99 299.99 C-205.26 294.28 -199.53 288.58 -193.78 282.88 C-190.26 279.38 -186.74 275.88 -183.22 272.37 C-181.89 271.04 -180.55 269.72 -179.22 268.4 C-172.41 261.66 -165.85 254.96 -159.96 247.39 C-157.79 244.74 -155.45 242.39 -153 240 C-152.15 239.15 -151.3 238.3 -150.42 237.42 C-133.95 220.95 -117.47 204.47 -101 188 C-102.11 188.95 -103.22 189.9 -104.33 190.85 C-104.95 191.37 -105.57 191.9 -106.2 192.45 C-108.6 194.52 -110.93 196.66 -113.25 198.81 C-116.94 202.18 -120.68 205.42 -124.56 208.56 C-132.72 215.17 -140.3 222.23 -147.67 229.69 C-151.62 233.67 -155.73 237.38 -160 241 C-161.53 242.31 -163.05 243.62 -164.56 244.94 C-165.59 245.82 -165.59 245.82 -166.63 246.71 C-168.63 248.64 -170.41 250.59 -172.22 252.68 C-176.26 257.36 -180.57 261.75 -184.94 266.12 C-186.08 267.28 -186.08 267.28 -187.24 268.46 C-191.34 272.58 -195.48 276.27 -200.19 279.67 C-202.79 281.59 -205.14 283.74 -207.5 285.94 C-210.71 288.9 -213.94 291.84 -217.25 294.69 C-219.77 296.87 -222.16 299.12 -224.5 301.5 C-227.44 304.49 -230.52 307.25 -233.7 309.98 C-236.51 312.44 -239.25 314.97 -242 317.5 C-245.24 320.48 -248.48 323.44 -251.81 326.31 C-254.45 328.59 -257.01 330.94 -259.54 333.33 C-260.19 333.94 -260.84 334.55 -261.51 335.18 C-262.8 336.4 -264.09 337.62 -265.37 338.85 C-269.15 342.42 -273.04 345.65 -277.26 348.69 C-279.76 350.57 -281.85 352.74 -284 355 C-288.08 359.19 -292.28 363.17 -296.7 366.99 C-303.94 373.32 -310.98 379.83 -317.67 386.73 C-320.32 389.31 -323.09 391.71 -325.88 394.13 C-329.29 397.13 -332.58 400.25 -335.88 403.38 C-340.39 407.63 -344.93 411.87 -349.56 416 C-352.89 418.97 -356.07 422.04 -359.19 425.22 C-360.96 426.96 -362.79 428.57 -364.68 430.18 C-369.17 434.08 -373.33 438.26 -377.5 442.5 C-382.18 447.27 -386.92 451.85 -391.99 456.21 C-395.65 459.47 -399.06 463 -402.5 466.5 C-403.92 467.95 -405.35 469.4 -406.78 470.84 C-407.4 471.47 -408.02 472.11 -408.66 472.76 C-410.63 474.64 -412.64 476.43 -414.71 478.21 C-418.65 481.65 -422.37 485.24 -426.06 488.96 C-426.71 489.61 -427.36 490.27 -428.04 490.95 C-429.45 492.36 -430.85 493.77 -432.26 495.18 C-434.48 497.42 -436.71 499.66 -438.94 501.89 C-443.67 506.63 -448.4 511.38 -453.12 516.12 C-458.61 521.64 -464.1 527.14 -469.59 532.65 C-471.78 534.85 -473.97 537.05 -476.16 539.25 C-477.51 540.6 -478.85 541.95 -480.2 543.3 C-480.81 543.91 -481.41 544.52 -482.03 545.14 C-485.53 548.65 -489.16 551.86 -493 555 C-494.12 556.2 -495.21 557.42 -496.25 558.69 C-499.81 562.87 -503.66 566.68 -507.57 570.53 C-510.36 573.36 -512.92 576.33 -515.43 579.41 C-517 581 -517 581 -519.07 581.97 C-521.53 583.28 -521.78 584.54 -523 587 C-524.37 588.67 -524.37 588.67 -525.94 590.32 C-526.81 591.24 -526.81 591.24 -527.7 592.18 C-528.31 592.82 -528.93 593.46 -529.56 594.12 C-530.84 595.47 -532.12 596.82 -533.39 598.18 C-534.01 598.83 -534.63 599.49 -535.27 600.16 C-538.21 603.29 -541.08 606.49 -543.94 609.69 C-545.33 611.25 -546.72 612.8 -548.12 614.34 C-551.4 617.94 -554.64 621.56 -557.78 625.29 C-562.83 631.28 -567.94 637.04 -573.56 642.5 C-579.57 648.36 -584.68 654.69 -589.75 661.37 C-595.15 668.43 -600.94 675.09 -606.98 681.59 C-610.5 685.39 -613.75 689.33 -616.93 693.41 C-618.82 695.77 -620.78 698.07 -622.76 700.36 C-628.47 706.96 -633.66 713.86 -638.8 720.91 C-643.61 727.51 -648.59 733.95 -653.68 740.34 C-655.92 743.16 -658.15 745.99 -660.38 748.81 C-660.82 749.38 -661.27 749.95 -661.73 750.54 C-665.39 755.19 -668.98 759.91 -672.56 764.62 C-676.33 769.58 -680.16 774.44 -684.19 779.19 C-688.12 783.84 -691.68 788.65 -695.17 793.63 C-698.69 798.63 -702.42 803.44 -706.25 808.21 C-709.72 812.55 -712.98 816.86 -715.38 821.89 C-717.46 825.87 -720.1 829.18 -722.88 832.69 C-728.86 840.37 -734.4 848.3 -739.85 856.37 C-742.21 859.85 -744.61 863.29 -747.06 866.7 C-777.11 908.66 -804.38 953.08 -828.25 998.84 C-831.58 1005.21 -834.96 1011.55 -838.38 1017.88 C-839.13 1019.28 -839.13 1019.28 -839.89 1020.71 C-844.88 1029.9 -844.88 1029.9 -848 1033 C-850.91 1033.78 -852.93 1033.35 -856 1033 C-858.45 1030.55 -858.3 1029.93 -858.31 1026.56 C-857.78 1004.63 -850.99 982.6 -845.89 961.37 C-845.62 960.23 -845.62 960.23 -845.34 959.07 C-845 957.63 -844.65 956.2 -844.3 954.76 C-843.31 950.59 -842.57 946.44 -842 942.19 C-841.25 936.93 -839.9 932.2 -838.13 927.21 C-834.8 917.77 -831.98 908.13 -829.25 898.5 C-829.04 897.77 -828.83 897.04 -828.61 896.29 C-827.28 891.53 -826.51 886.92 -826 882 C-825.34 882 -824.68 882 -824 882 C-823.9 881.07 -823.8 880.13 -823.7 879.17 C-822.83 873.11 -820.8 867.31 -819 861.47 C-818.73 860.57 -818.46 859.67 -818.18 858.74 C-817.93 857.92 -817.68 857.11 -817.42 856.27 C-816.84 854.04 -816.84 854.04 -817.5 852.01 C-818.16 849.35 -817.6 847.75 -816.81 845.13 C-816.39 843.7 -816.39 843.7 -815.95 842.23 C-815.64 841.21 -815.32 840.18 -815 839.12 C-814.68 838.06 -814.36 836.99 -814.03 835.89 C-811.63 827.91 -809.11 819.98 -806.54 812.05 C-804.92 807.02 -803.42 801.98 -802.04 796.87 C-795.69 773.56 -787.21 750.57 -777.94 728.27 C-775.83 723.17 -773.82 718.02 -771.79 712.88 C-770.87 710.58 -769.94 708.29 -769 706 C-768.66 705.18 -768.33 704.37 -767.98 703.52 C-767.64 702.73 -767.3 701.93 -766.95 701.11 C-766.5 700.03 -766.5 700.03 -766.04 698.93 C-764.91 696.83 -763.87 695.49 -762 694 C-758.12 693.51 -755.94 693.34 -752.69 695.62 C-748.39 701.68 -748.4 708.78 -747.88 715.94 C-747.79 717 -747.7 718.06 -747.61 719.15 C-747.2 724.45 -746.89 729.68 -747 735 C-746.01 735 -745.02 735 -744 735 C-743.89 734.29 -743.79 733.57 -743.68 732.84 C-742.92 729.68 -741.74 727.43 -740.11 724.63 C-739.51 723.59 -738.91 722.56 -738.29 721.49 C-737.31 719.82 -737.31 719.82 -736.31 718.12 C-735.63 716.96 -734.95 715.79 -734.27 714.62 C-720.52 691.12 -706.49 667.61 -690.6 645.49 C-686.06 639.15 -681.71 632.68 -677.38 626.19 C-676.68 625.14 -675.98 624.1 -675.25 623.02 C-674.6 622.04 -673.95 621.05 -673.27 620.04 C-672.4 618.73 -672.4 618.73 -671.51 617.39 C-669.7 614.52 -668.28 611.74 -667.09 608.57 C-665.88 605.72 -664.39 603.43 -662.62 600.9 C-661.62 599.46 -661.62 599.46 -660.59 597.99 C-659.88 596.98 -659.17 595.98 -658.44 594.94 C-657.71 593.9 -656.99 592.87 -656.24 591.8 C-651.29 584.76 -646.24 577.83 -641 571 C-636.35 564.85 -631.75 558.67 -627.19 552.45 C-620.74 543.66 -614.18 534.95 -607.55 526.29 C-604.21 521.92 -600.9 517.53 -597.69 513.06 C-591.97 505.12 -585.83 497.48 -579.66 489.88 C-579.12 489.2 -578.57 488.52 -578 487.82 C-576.94 486.51 -575.87 485.19 -574.8 483.89 C-572.68 481.27 -571.07 479.22 -570 476 C-569.36 475.53 -568.72 475.05 -568.06 474.56 C-565.9 473.18 -565.9 473.18 -565.08 471.09 C-563.87 468.74 -562.68 467.7 -560.62 466.06 C-552.71 459.35 -545.85 451.39 -539.38 443.31 C-535.64 438.66 -531.59 434.49 -527.33 430.32 C-523.57 426.58 -520.17 422.56 -516.74 418.52 C-510.49 411.14 -504.13 403.91 -497.52 396.84 C-492.99 392.01 -488.52 387.12 -484.36 381.96 C-483.56 380.99 -483.56 380.99 -482.75 380 C-482.29 379.42 -481.83 378.85 -481.36 378.25 C-480 377 -480 377 -477 377 C-475.33 375.49 -475.33 375.49 -473.75 373.47 C-470.28 369.33 -466.65 365.37 -462.94 361.44 C-461.62 360.04 -460.3 358.64 -458.99 357.24 C-458.33 356.54 -457.66 355.84 -456.98 355.11 C-455.06 353.06 -453.14 351.01 -451.23 348.95 C-445.64 342.93 -440.07 336.93 -434.16 331.22 C-432.37 329.38 -430.71 327.5 -429.05 325.55 C-424.3 320.12 -419.2 315.05 -414.1 309.96 C-413.05 308.92 -412 307.87 -410.96 306.82 C-408.77 304.64 -406.59 302.45 -404.4 300.27 C-401.62 297.5 -398.85 294.72 -396.07 291.94 C-393.91 289.77 -391.75 287.62 -389.59 285.46 C-388.57 284.43 -387.54 283.41 -386.52 282.38 C-381.39 277.24 -376.23 272.18 -370.7 267.46 C-367.77 264.95 -364.99 262.27 -362.19 259.62 C-357.11 254.87 -351.89 250.4 -346.46 246.05 C-343.4 243.5 -340.65 240.74 -337.88 237.89 C-335.45 235.45 -332.87 233.22 -330.25 230.97 C-328.04 229.04 -325.88 227.05 -323.72 225.05 C-315.18 217.13 -306.18 209.88 -296.92 202.81 C-290.15 197.62 -283.3 192.34 -277.3 186.27 C-274.84 183.84 -273.17 183.25 -270 182 C-264.53 178.25 -259.43 173.96 -254.31 169.75 C-248.4 164.91 -242.41 160.22 -236.33 155.59 C-232.55 152.68 -228.87 149.65 -225.19 146.62 C-219.91 142.3 -214.55 138.12 -209.06 134.06 C-202.58 129.27 -196.34 124.23 -190.15 119.07 C-184.97 114.77 -179.68 110.64 -174.32 106.57 C-168.37 102 -162.6 97.2 -156.79 92.45 C-154.43 90.54 -152.06 88.64 -149.69 86.75 C-141.6 80.3 -133.64 73.71 -125.76 67.01 C-122.59 64.32 -119.39 61.7 -116.12 59.12 C-106.19 51.24 -96.75 42.74 -87.39 34.19 C-66.18 14.81 -30.52 -16.8 0 0 Z " fill="#F7F7EB" transform="translate(1301,240)"/>
<path d="M0 0 C-3.22 4.24 -6.79 4.97 -11.76 6.09 C-14.61 7.25 -14.69 8.32 -16 11 C-18.31 12.38 -18.31 12.38 -21 13.56 C-25.17 15.4 -25.17 15.4 -28 19 C-27.39 18.98 -26.77 18.95 -26.14 18.93 C-25.33 18.91 -24.52 18.89 -23.69 18.88 C-22.49 18.84 -22.49 18.84 -21.26 18.8 C-19 19 -19 19 -16 21 C-19.75 24 -19.75 24 -22 24 C-22.22 24.58 -22.44 25.17 -22.67 25.77 C-30.7 39.24 -59.07 48.78 -73 56.21 C-85.08 62.67 -96.65 69.71 -108.16 77.17 C-177.9 122.13 -177.9 122.13 -203.92 129.95 C-206.4 130.79 -208.63 131.74 -211 132.84 C-217.1 135.6 -223.46 137.5 -229.88 139.38 C-230.87 139.67 -230.87 139.67 -231.88 139.96 C-242.95 143.18 -254.07 145.54 -265.44 147.44 C-266.15 147.56 -266.87 147.68 -267.6 147.8 C-288.72 151.28 -309.52 153.07 -330.94 153.12 C-332.8 153.13 -332.8 153.13 -334.69 153.14 C-335.86 153.14 -337.02 153.13 -338.21 153.13 C-339.78 153.13 -339.78 153.13 -341.37 153.13 C-344 153 -344 153 -347 152 C-348.44 151.87 -349.88 151.79 -351.33 151.73 C-352.2 151.7 -353.07 151.67 -353.97 151.63 C-354.91 151.6 -355.85 151.57 -356.82 151.54 C-358.82 151.46 -360.82 151.38 -362.82 151.3 C-365.97 151.18 -369.11 151.06 -372.26 150.95 C-375.3 150.84 -378.34 150.72 -381.38 150.6 C-382.31 150.57 -383.24 150.54 -384.2 150.51 C-389.33 150.29 -394.11 149.7 -399.1 148.46 C-401.75 147.82 -404.42 147.51 -407.12 147.19 C-424.42 144.79 -441.45 140.52 -458 135 C-464.97 134.38 -469.66 136.16 -475.94 139.06 C-477.8 139.89 -479.67 140.73 -481.54 141.55 C-482.46 141.97 -483.38 142.38 -484.33 142.81 C-488.15 144.51 -492 146.11 -495.88 147.69 C-496.9 148.11 -496.9 148.11 -497.95 148.54 C-499.97 149.36 -501.98 150.18 -504 151 C-504.67 151.27 -505.35 151.55 -506.04 151.83 C-512.63 154.52 -519.21 157.19 -526 159.34 C-528.16 160.05 -530.26 160.86 -532.38 161.69 C-536 163 -536 163 -539 163 C-539 163.66 -539 164.32 -539 165 C-539.63 165.21 -540.25 165.42 -540.9 165.64 C-565.09 173.83 -587.43 184.34 -609 198 C-609.89 198.56 -610.78 199.12 -611.69 199.7 C-618.99 204.31 -626.27 208.96 -633.53 213.63 C-664.89 233.79 -664.89 233.79 -676.08 236.48 C-678.69 237.19 -680.76 238.53 -683 240 C-683.66 240 -684.32 240 -685 240 C-685 240.66 -685 241.32 -685 242 C-700.53 249.27 -714.67 254.08 -732 253 C-733.07 252.95 -734.13 252.9 -735.23 252.86 C-747.01 251.74 -757.33 245.47 -767.66 240.1 C-793.05 227 -818.57 221.62 -846.98 221.68 C-850 221.69 -853.01 221.66 -856.02 221.64 C-867.43 221.6 -877.88 222.44 -889 225 C-890.92 225.38 -892.84 225.76 -894.77 226.13 C-897.3 226.63 -899.82 227.13 -902.35 227.64 C-906.71 228.49 -910.97 229.11 -915.41 229.42 C-921.39 229.92 -926.89 231.39 -932.62 233.12 C-933.67 233.44 -934.71 233.75 -935.78 234.07 C-956.1 240.27 -970.68 246.24 -981.06 265.62 C-989.81 281.93 -1003.08 288.79 -1020.38 294.19 C-1028.7 296.64 -1037.21 298.11 -1045.74 299.59 C-1048.47 300.08 -1051.17 300.67 -1053.88 301.25 C-1059.56 302.3 -1065.25 302.11 -1071.01 301.97 C-1073.88 301.65 -1073.88 301.65 -1075 303 C-1076.73 303.12 -1078.46 303.18 -1080.19 303.21 C-1081.31 303.23 -1082.43 303.25 -1083.59 303.27 C-1084.83 303.28 -1086.08 303.3 -1087.36 303.32 C-1088.65 303.34 -1089.95 303.36 -1091.29 303.38 C-1095.59 303.45 -1099.89 303.51 -1104.19 303.56 C-1104.92 303.57 -1105.65 303.58 -1106.4 303.59 C-1115.59 303.71 -1124.79 303.82 -1133.98 303.92 C-1139.36 303.98 -1144.74 304.05 -1150.13 304.12 C-1156.64 304.21 -1163.15 304.28 -1169.66 304.33 C-1173.07 304.35 -1176.48 304.38 -1179.89 304.43 C-1183.68 304.49 -1187.47 304.51 -1191.27 304.52 C-1192.39 304.55 -1193.51 304.57 -1194.67 304.59 C-1202.23 304.57 -1202.23 304.57 -1206.17 301.65 C-1208 299 -1208 299 -1209 296 C-1208.14 295.92 -1207.28 295.84 -1206.4 295.76 C-1203.83 295.52 -1201.26 295.28 -1198.69 295.03 C-1195.76 294.76 -1192.83 294.49 -1189.9 294.21 C-1183.44 293.61 -1176.98 293 -1170.52 292.36 C-1169.58 292.26 -1168.64 292.17 -1167.68 292.07 C-1166 291.91 -1164.32 291.73 -1162.64 291.56 C-1148.66 290.17 -1148.66 290.17 -1145 292 C-1136.98 292.7 -1131 291.64 -1123.88 287.88 C-1119.29 285.74 -1114.09 285.9 -1109.12 285.75 C-1096.23 285.18 -1083.47 282.7 -1070.75 280.61 C-1067.25 280.04 -1063.75 279.51 -1060.25 278.99 C-1054.22 278.07 -1048.27 276.91 -1042.31 275.62 C-1041.36 275.43 -1040.4 275.23 -1039.42 275.03 C-1030.99 273.22 -1022.85 270.74 -1015.75 265.69 C-1014.98 265.16 -1014.21 264.62 -1013.42 264.07 C-1007.27 258.81 -1003.69 252.91 -1000.19 245.69 C-994.7 234.86 -988.24 226.75 -978 220 C-977.07 219.36 -976.13 218.73 -975.17 218.07 C-967.96 213.36 -960.85 210.15 -952.75 207.32 C-948.79 205.93 -944.96 204.34 -941.11 202.66 C-937.27 201.46 -933.81 201.87 -930 203 C-930 202.01 -930 201.02 -930 200 C-922.03 197.15 -914.19 195.04 -905.88 193.5 C-903.67 193.08 -901.47 192.66 -899.27 192.23 C-898.2 192.02 -897.13 191.82 -896.03 191.61 C-892.6 190.92 -889.2 190.14 -885.79 189.33 C-875.93 186.99 -866.09 185.82 -856 185 C-855.03 184.92 -854.05 184.83 -853.05 184.74 C-817.34 181.77 -783.26 185.22 -749.94 198.84 C-738.1 203.66 -726.64 205.41 -714.52 200.32 C-711.08 198.52 -708 196.39 -704.89 194.07 C-700.56 190.97 -696 188.23 -691.44 185.46 C-690.78 185.06 -690.12 184.65 -689.44 184.23 C-688.85 183.88 -688.26 183.52 -687.65 183.15 C-685.89 181.92 -684.5 180.54 -683 179 C-681.52 177.93 -680.02 176.89 -678.5 175.88 C-672.73 171.89 -667.4 167.46 -662 163 C-646.81 150.49 -630.52 139.51 -613.19 130.19 C-610.71 128.84 -608.25 127.47 -605.79 126.1 C-594.75 119.98 -583.6 114.32 -572.15 109.01 C-568.25 107.18 -564.39 105.24 -560.55 103.29 C-556.33 101.15 -552.09 99.08 -547.82 97.03 C-532.4 89.58 -518.09 81.81 -505.56 70 C-498.32 63.28 -491.19 61.29 -481.37 61.61 C-472.77 62.61 -463.54 65.65 -456 70 C-455.67 70.66 -455.34 71.32 -455 72 C-452.6 72.96 -450.24 73.8 -447.79 74.6 C-447.07 74.84 -446.34 75.08 -445.6 75.33 C-444.06 75.84 -442.53 76.35 -440.99 76.85 C-438.64 77.62 -436.29 78.4 -433.95 79.19 C-432.46 79.68 -430.97 80.17 -429.48 80.66 C-428.77 80.9 -428.07 81.13 -427.35 81.37 C-424.44 82.32 -422.08 83 -419 83 C-419.66 82.34 -420.32 81.68 -421 81 C-416.81 81.6 -412.99 82.57 -409 84 C-409 84.66 -409 85.32 -409 86 C-409.99 86 -410.98 86 -412 86 C-404.09 88.09 -404.09 88.09 -396.06 89.56 C-393.03 90 -390.82 90.86 -388 92 C-375.25 95.82 -361.61 97.03 -348.4 98.24 C-347.62 98.31 -346.83 98.38 -346.02 98.46 C-345.33 98.52 -344.65 98.58 -343.95 98.63 C-342 99 -342 99 -340.03 100 C-313.85 112.94 -261.15 100.01 -234.67 93.64 C-231.96 92.99 -229.24 92.37 -226.52 91.75 C-224.77 91.33 -223.01 90.92 -221.25 90.5 C-220.48 90.32 -219.7 90.15 -218.91 89.96 C-213.58 88.65 -208.81 86.66 -203.85 84.32 C-199.09 82.11 -194.23 80.18 -189.38 78.19 C-175.3 72.36 -161.69 65.98 -148.26 58.8 C-141.68 55.3 -134.99 52.08 -128.23 48.96 C-125.25 47.57 -122.37 46.23 -119.59 44.5 C-116.44 42.67 -113.18 41.44 -109.8 40.12 C-105.86 38.54 -102.01 36.79 -98.15 35.04 C-74.46 24.34 -50.51 14.67 -25.94 6.19 C-25.04 5.87 -24.14 5.56 -23.22 5.24 C-20.66 4.35 -18.1 3.47 -15.53 2.61 C-14.77 2.34 -14.01 2.08 -13.23 1.8 C-8.62 0.27 -4.85 -0.27 0 0 Z " fill="#F6F6EB" transform="translate(1494,1418)"/>
<path d="M0 0 C0.76 0.21 1.53 0.41 2.31 0.62 C1.96 1.55 1.61 2.48 1.25 3.44 C-0.01 6.61 -0.01 6.61 1.31 9.62 C0.82 12.22 0.82 12.22 0 15.12 C-0.4 16.56 -0.4 16.56 -0.8 18.03 C-1.69 20.62 -1.69 20.62 -3.69 23.62 C-4.15 24.89 -4.57 26.18 -4.96 27.47 C-7.01 33.84 -9.71 39.93 -12.38 46.06 C-12.91 47.31 -13.45 48.56 -13.99 49.8 C-17.31 57.52 -20.68 65.22 -24.19 72.86 C-26.1 77.07 -27.62 81.3 -28.96 85.74 C-29.69 87.62 -29.69 87.62 -31.69 89.62 C-32.3 91.12 -32.86 92.65 -33.38 94.19 C-35.23 99.47 -37.29 104.64 -39.44 109.81 C-39.91 110.96 -39.91 110.96 -40.4 112.14 C-41.16 113.97 -41.92 115.8 -42.69 117.62 C-43.35 117.62 -44.01 117.62 -44.69 117.62 C-44.89 118.92 -45.1 120.22 -45.31 121.56 C-46.34 126.35 -48.42 129.62 -51.35 133.48 C-52.81 135.54 -52.81 135.54 -53.14 137.91 C-53.74 140.86 -54.7 143.38 -55.87 146.15 C-56.3 147.19 -56.74 148.23 -57.18 149.3 C-57.64 150.38 -58.09 151.45 -58.56 152.56 C-59.01 153.63 -59.46 154.71 -59.92 155.81 C-61.65 159.95 -63.37 164.02 -65.45 168 C-66.82 170.9 -67.17 173.47 -67.69 176.62 C-68.92 179.38 -68.92 179.38 -70.44 182.19 C-72.63 186.25 -74.36 190.31 -75.99 194.63 C-78.74 201.88 -81.86 208.94 -85.06 216 C-85.64 217.28 -86.22 218.56 -86.79 219.83 C-87.92 222.32 -89.04 224.8 -90.17 227.28 C-91.46 230.12 -92.74 232.96 -94.02 235.8 C-94.64 237.16 -95.26 238.52 -95.88 239.88 C-96.38 240.99 -96.89 242.11 -97.42 243.27 C-98.69 245.62 -98.69 245.62 -100.69 246.62 C-100.87 248.57 -100.87 248.57 -101.06 250.56 C-102.01 260.34 -106.15 268.27 -113.69 274.62 C-116.9 276.46 -120.15 277.57 -123.69 278.62 C-124.68 278.93 -125.67 279.23 -126.69 279.54 C-128.85 280.19 -131.02 280.84 -133.19 281.5 C-142.44 284.48 -151.35 288.39 -160.15 292.48 C-162.6 293.58 -165.06 294.55 -167.56 295.5 C-173.9 298 -179.75 301.31 -185.69 304.62 C-186.86 305.26 -188.03 305.9 -189.21 306.54 C-196.32 310.45 -202.85 314.76 -209.26 319.74 C-214.26 323.62 -214.26 323.62 -218.69 323.62 C-219.02 324.62 -219.35 325.61 -219.69 326.62 C-221.47 327.62 -221.47 327.62 -223.75 328.5 C-229.23 330.79 -234.45 333.39 -238.69 337.62 C-242.33 341.26 -246.5 344.4 -251.69 344.94 C-252.35 344.83 -253.01 344.73 -253.69 344.62 C-254.12 341.69 -254.23 339.5 -252.63 336.91 C-247.15 330.36 -240.47 324.99 -233.45 320.18 C-231.53 318.66 -231.53 318.66 -230.29 316.2 C-228.38 313.12 -226.33 311.58 -223.38 309.5 C-222.45 308.84 -221.53 308.17 -220.57 307.49 C-213.05 302.62 -213.05 302.62 -209.69 302.62 C-209.69 301.96 -209.69 301.31 -209.69 300.62 C-205.78 298.38 -201.86 296.16 -197.94 293.94 C-196.3 293 -196.3 293 -194.63 292.04 C-188.34 288.49 -182.08 285.37 -175.33 282.75 C-172.61 281.59 -170.21 280.17 -167.69 278.62 C-165.93 277.91 -164.16 277.25 -162.38 276.62 C-160.93 276.11 -160.93 276.11 -159.46 275.59 C-157.8 275.01 -156.12 274.45 -154.44 273.91 C-149.35 272.23 -145.2 269.75 -141.69 265.62 C-140.62 263.35 -140.62 263.35 -139.69 260.62 C-139.19 259.37 -138.69 258.11 -138.18 256.86 C-137.92 256.19 -137.65 255.53 -137.38 254.85 C-135.53 250.24 -135.53 250.24 -133.69 245.62 C-133.03 246.29 -132.37 246.94 -131.69 247.62 C-131.36 245.97 -131.03 244.33 -130.69 242.62 C-131.02 242.62 -131.35 242.62 -131.69 242.62 C-131.29 236.8 -129.36 232.18 -126.94 226.88 C-125.68 223.61 -124.96 220.48 -124.24 217.05 C-123.26 212.74 -121.84 208.57 -120.44 204.38 C-120.13 203.45 -119.82 202.53 -119.5 201.58 C-117.39 195.38 -114.96 189.55 -112.09 183.67 C-109.54 178.14 -107.67 172.37 -105.69 166.62 C-105.05 164.87 -104.4 163.12 -103.75 161.38 C-102.53 158.06 -101.39 154.73 -100.32 151.36 C-97.72 143.28 -94.94 135.82 -90.93 128.3 C-89.33 124.86 -88.7 121.56 -88.12 117.83 C-87.52 114.79 -86.23 112.29 -84.69 109.62 C-84.03 109.95 -83.37 110.29 -82.69 110.62 C-82.98 111.24 -83.26 111.86 -83.56 112.5 C-85.1 116.78 -85.87 121.15 -86.69 125.62 C-86.37 124.66 -86.06 123.69 -85.73 122.7 C-81.85 110.87 -81.85 110.87 -79.56 105.44 C-77.31 100 -75.99 94.36 -74.69 88.62 C-74.03 88.62 -73.37 88.62 -72.69 88.62 C-71.84 85.25 -71.58 82.95 -72.69 79.62 C-71.7 79.62 -70.71 79.62 -69.69 79.62 C-69.09 77.89 -69.09 77.89 -68.48 76.12 C-67.95 74.58 -67.41 73.04 -66.88 71.5 C-66.61 70.74 -66.35 69.98 -66.08 69.2 C-64.56 64.82 -62.83 60.74 -60.69 56.62 C-60.03 55.09 -59.39 53.55 -58.75 52 C-57.17 48.43 -55.64 46.24 -52.69 43.62 C-51.72 42.46 -50.77 41.29 -49.81 40.12 C-45.88 35.56 -41.36 31.77 -36.75 27.93 C-33.22 24.97 -29.94 21.89 -26.69 18.62 C-25.17 17.35 -23.63 16.1 -22.06 14.88 C-17.33 11.15 -12.68 7.34 -8.04 3.51 C-3.12 -0.44 -3.12 -0.44 0 0 Z " fill="#F5F6EA" transform="translate(570.6875,1335.375)"/>
<path d="M0 0 C1.88 1.12 1.88 1.12 3 3 C2.61 8.36 0.52 12.55 -1.88 17.25 C-2.23 17.97 -2.58 18.69 -2.94 19.43 C-3.29 20.12 -3.63 20.81 -3.99 21.52 C-4.31 22.14 -4.62 22.76 -4.94 23.4 C-6 25 -6 25 -9 27 C-9.4 28.27 -9.4 28.27 -9.81 29.56 C-12.24 36.58 -16.74 41.88 -22 47 C-23.3 49.17 -23.3 49.17 -24 51 C-24.66 51 -25.32 51 -26 51 C-26.27 51.64 -26.54 52.28 -26.81 52.94 C-28 55 -28 55 -31 56 C-31.35 57.33 -31.69 58.66 -32 60 C-33.44 61.75 -33.44 61.75 -35 63 C-35.66 63 -36.32 63 -37 63 C-37.28 63.59 -37.55 64.18 -37.84 64.79 C-41.96 72.61 -49.49 78.12 -56.19 83.62 C-59.03 85.96 -59.03 85.96 -61.56 88.56 C-63.93 90.93 -66.3 93.03 -69 95 C-69.66 95 -70.32 95 -71 95 C-71 95.66 -71 96.32 -71 97 C-73 98.62 -73 98.62 -75 100 C-65.42 99.62 -56 99.18 -46.55 97.54 C-40.93 96.69 -35.28 96.2 -29.63 95.7 C-28.8 95.62 -27.97 95.54 -27.11 95.46 C-26 95.37 -26 95.37 -24.86 95.27 C-22.91 95.09 -22.91 95.09 -21 94 C-17.93 93.64 -14.84 93.53 -11.75 93.38 C-10.9 93.32 -10.06 93.27 -9.18 93.22 C-4.62 92.98 -0.5 93.01 4 94 C4 94.66 4 95.32 4 96 C2.95 96.07 2.95 96.07 1.88 96.15 C-7.67 96.38 -7.67 96.38 -16 100 C-18.77 100.34 -21.53 100.62 -24.31 100.88 C-49.46 102.75 -49.46 102.75 -73.61 109.07 C-76.3 110.12 -78.49 110.27 -81.38 110.38 C-86.64 110.77 -89.72 111.93 -94 115 C-94.33 115.66 -94.66 116.32 -95 117 C-97.53 118.69 -99.89 119.96 -102.75 121 C-103.86 121.49 -103.86 121.49 -105 122 C-105.33 122.99 -105.66 123.98 -106 125 C-106.78 125.08 -107.57 125.16 -108.38 125.25 C-109.67 125.62 -109.67 125.62 -111 126 C-112.09 127.93 -112.09 127.93 -113 130 C-114.33 130.67 -115.67 131.33 -117 132 C-117.3 132.59 -117.59 133.19 -117.89 133.8 C-119.18 136.35 -120.75 138.1 -122.69 140.19 C-129 147.15 -134.43 154.21 -138.88 162.5 C-140.78 165.88 -143.26 168.26 -146 171 C-147.32 173.67 -147.32 173.67 -148 176 C-148.66 176 -149.32 176 -150 176 C-150.25 176.69 -150.5 177.38 -150.75 178.09 C-151.93 180.83 -153.32 183.31 -154.87 185.86 C-159.78 193.98 -163.79 202.22 -163 212 C-158.06 214.95 -153.47 213.99 -148 213 C-137.7 210 -128.61 204.73 -119.31 199.5 C-118.27 198.92 -117.22 198.34 -116.15 197.74 C-115.15 197.17 -114.14 196.61 -113.11 196.03 C-111.75 195.27 -111.75 195.27 -110.36 194.49 C-108.23 193.14 -106.72 191.81 -105 190 C-103.32 189.02 -101.61 188.08 -99.88 187.19 C-95.39 184.81 -91.21 182.23 -87.07 179.3 C-82.72 176.57 -77.92 175.35 -73 174 C-74.39 178.18 -76.53 178.66 -80.38 180.69 C-81.54 181.31 -82.7 181.93 -83.9 182.57 C-87 184 -87 184 -90 184 C-90.66 185.65 -91.32 187.3 -92 189 C-92.99 189 -93.98 189 -95 189 C-95.6 189.76 -96.2 190.53 -96.82 191.31 C-99.3 194.37 -101.31 195.4 -104.88 197 C-109.61 199.23 -113.13 201.53 -117 205 C-117.99 205.33 -118.98 205.66 -120 206 C-120.43 206.44 -120.86 206.89 -121.31 207.35 C-127.15 213.05 -136.31 216.35 -143.88 219.18 C-146.01 219.94 -146.01 219.94 -147.88 221.08 C-152.55 223.1 -158.03 222.5 -163 222 C-167.39 219.92 -170.54 217.23 -173 213 C-172.89 207.4 -170.88 202.23 -169 197 C-169.67 197.56 -170.33 198.12 -171.02 198.7 C-174.45 201.35 -178.01 203.56 -181.75 205.75 C-182.49 206.18 -183.22 206.61 -183.98 207.06 C-189.26 210.1 -194.62 212.9 -200.12 215.5 C-200.81 215.83 -201.5 216.15 -202.2 216.49 C-209.89 220.03 -217.48 222.29 -226 221 C-229.91 218.21 -231.52 215.49 -233 211 C-233.33 203.78 -231.63 197.23 -228 191 C-227.34 190.34 -226.68 189.68 -226 189 C-225.28 187.04 -224.56 185.08 -223.86 183.11 C-222.62 180.08 -220.92 177.65 -219 175 C-219.68 175.7 -220.36 176.4 -221.06 177.12 C-223.08 179.15 -225.17 181 -227.38 182.81 C-229.97 185 -232.19 187.28 -234.38 189.88 C-238.22 194.37 -242.49 198.19 -247 202 C-247.96 202.81 -248.92 203.63 -249.91 204.47 C-257.58 210.86 -257.58 210.86 -261 212 C-262.34 213.32 -263.68 214.66 -265 216 C-275.11 223.39 -287.6 230.28 -300.19 231.88 C-301.03 232 -301.87 232.12 -302.73 232.24 C-305 232 -305 232 -306.77 230.18 C-308.51 227.09 -308.53 225.53 -308 222 C-304.79 214.78 -300.49 208.61 -294 204 C-293.34 204 -292.68 204 -292 204 C-291.67 202.68 -291.34 201.36 -291 200 C-290.34 200 -289.68 200 -289 200 C-288.78 199.43 -288.55 198.87 -288.32 198.29 C-282.83 188.8 -268.89 181.25 -260 175 C-259.34 174.53 -258.69 174.07 -258.01 173.59 C-245.42 164.73 -226.63 152.08 -210.56 153.25 C-209.29 153.62 -209.29 153.62 -208 154 C-207.67 154.66 -207.34 155.32 -207 156 C-206.75 155.43 -206.49 154.87 -206.23 154.29 C-205.89 153.55 -205.54 152.82 -205.19 152.06 C-204.85 151.33 -204.51 150.6 -204.17 149.85 C-203 148 -203 148 -200 147 C-199.01 147.33 -198.02 147.66 -197 148 C-197.4 157.01 -202.5 164.16 -208 171 C-219.92 188.63 -219.92 188.63 -224 209 C-219.49 210.76 -215.84 211.43 -211 211 C-209.97 210.48 -208.94 209.97 -207.88 209.44 C-204.62 207.81 -203.39 207.9 -200 209 C-200 208.34 -200 207.68 -200 207 C-196.66 204.35 -193.7 202.8 -189.62 201.56 C-185.7 200.34 -182.62 198.73 -179.23 196.42 C-177 195 -177 195 -174.08 193.61 C-166.15 189.7 -163.04 185.48 -159.57 177.49 C-157.33 172.5 -154.26 168.36 -151 164 C-149.62 162.11 -148.25 160.21 -146.88 158.31 C-146.21 157.4 -145.54 156.5 -144.86 155.56 C-143.24 153.34 -141.68 151.08 -140.12 148.81 C-139.42 147.88 -138.72 146.96 -138 146 C-137.34 146 -136.68 146 -136 146 C-135.71 145.4 -135.42 144.8 -135.12 144.19 C-134 142 -134 142 -132 139 C-132.34 136.89 -132.99 135.02 -133.69 133 C-134.12 130.25 -133.59 129.28 -132 127 C-129.21 125.8 -129.21 125.8 -125.81 124.75 C-119.35 122.47 -115.83 119.62 -112 114 C-130.72 116.78 -130.72 116.78 -148.61 122.6 C-153.47 124.61 -157.82 124.74 -163 124 C-165.75 122.25 -165.75 122.25 -167 120 C-167.12 117.88 -167.12 117.88 -166 116 C-163.44 114.88 -163.44 114.88 -160 114 C-158.74 113.65 -157.48 113.3 -156.19 112.94 C-152.62 112.06 -149.1 111.64 -145.45 111.3 C-143.1 111.01 -140.85 110.57 -138.54 110.05 C-131.2 108.55 -123.74 107.98 -116.28 107.32 C-108.76 106.55 -104.21 105.76 -99.17 99.86 C-98.7 99.16 -98.23 98.47 -97.75 97.75 C-96.3 95.61 -96.3 95.61 -95 94 C-94.34 94 -93.68 94 -93 94 C-93 93.01 -93 92.02 -93 91 C-90.41 88.06 -88.75 86.25 -85 85 C-84.3 83.68 -83.63 82.35 -83 81 C-82.02 79.98 -81.02 78.98 -80 78 C-79.67 77.34 -79.34 76.68 -79 76 C-78.34 76 -77.68 76 -77 76 C-76.67 75.01 -76.34 74.02 -76 73 C-75.34 73 -74.68 73 -74 73 C-73.74 72.43 -73.48 71.87 -73.21 71.28 C-69.94 65.11 -65.41 60.3 -60 56 C-58.5 54.12 -57.1 52.19 -55.68 50.24 C-52.72 46.29 -49.54 42.44 -46 39 C-45.34 39 -44.68 39 -44 39 C-43.78 38.47 -43.56 37.94 -43.34 37.39 C-41.51 34.13 -39.08 31.53 -36.56 28.81 C-35.83 27.99 -35.83 27.99 -35.08 27.16 C-32.75 24.63 -31.31 23.1 -28 22 C-27.31 20.68 -26.65 19.34 -26 18 C-8.7 -1.37 -8.7 -1.37 0 0 Z " fill="#EFF2E8" transform="translate(1557,1076)"/>
<path d="M0 0 C-0.97 6.34 -4.02 12.38 -8.88 16.65 C-10.56 17.81 -12.28 18.91 -14 20 C-14.99 21.48 -14.99 21.48 -16 23 C-16.99 23 -17.98 23 -19 23 C-19 23.66 -19 24.32 -19 25 C-23.38 28 -23.38 28 -26 28 C-26 28.66 -26 29.32 -26 30 C-28.31 30 -30.62 30 -33 30 C-33 30.66 -33 31.32 -33 32 C-33.99 32.33 -34.98 32.66 -36 33 C-36.66 33.99 -37.32 34.98 -38 36 C-39.89 36.76 -41.79 37.52 -43.72 38.18 C-46.05 39.02 -48.26 40.01 -50.5 41.06 C-58.14 44.47 -64.94 45.25 -73.24 45.46 C-76.1 45.68 -76.1 45.68 -77.26 47.85 C-77.5 48.56 -77.75 49.27 -78 50 C-78.66 50.99 -79.32 51.98 -80 53 C-80.68 55 -81.35 57 -82 59 C-82.33 59.33 -82.66 59.66 -83 60 C-83.26 62.67 -83.47 65.32 -83.62 68 C-83.7 69.13 -83.7 69.13 -83.78 70.27 C-83.9 72.18 -83.95 74.09 -84 76 C-82.88 77.34 -82.88 77.34 -80.01 77.21 C-75.43 77.14 -71.25 75.95 -66.88 74.69 C-66.09 74.47 -65.3 74.26 -64.5 74.04 C-60.23 72.84 -56.75 71.44 -53 69 C-52.03 68.71 -51.06 68.42 -50.06 68.12 C-47.23 67.08 -46.05 66.32 -43.88 64.38 C-41 62 -41 62 -37 62 C-36.67 61.01 -36.34 60.02 -36 59 C-33.86 57.65 -33.86 57.65 -31.19 56.38 C-30.31 55.95 -29.44 55.52 -28.54 55.09 C-26.35 54.15 -24.33 53.49 -22 53 C-22 52.34 -22 51.68 -22 51 C-20.02 50.34 -18.04 49.68 -16 49 C-16 48.34 -16 47.68 -16 47 C-14.27 46.32 -12.55 45.63 -10.82 44.95 C-8.79 43.89 -7.61 42.62 -6 41 C-1.27 37.96 3.57 35.53 9 34 C7.8 37.6 6.9 37.95 3.75 39.88 C-0.65 42.69 -4.16 45.78 -7.5 49.81 C-9.64 51.51 -11.35 51.21 -14 51 C-14.33 51.99 -14.66 52.98 -15 54 C-16.99 55.02 -18.99 56.02 -21 57 C-21.93 57.96 -21.93 57.96 -22.88 58.94 C-24.93 60.93 -26.38 61.75 -28.94 62.94 C-31.86 64.3 -33.27 65.27 -35.62 67.62 C-38.3 70.3 -40.38 71.07 -44 72 C-44 72.66 -44 73.32 -44 74 C-73.27 86.82 -73.27 86.82 -87 85 C-91.15 82.84 -93.52 80.43 -95 76 C-95.14 74.05 -95.22 72.08 -95.25 70.12 C-95.28 69.1 -95.3 68.07 -95.33 67.01 C-94.95 63.58 -93.89 61.84 -92 59 C-91.5 57.7 -91.04 56.39 -90.62 55.06 C-89.15 50.9 -86.99 48.23 -84 45 C-85.65 45.33 -87.3 45.66 -89 46 C-89.33 46.99 -89.66 47.98 -90 49 C-93.28 50.58 -96.55 51.85 -100 53 C-100.5 53.99 -100.5 53.99 -101 55 C-105.66 58.61 -110.37 60.35 -116 62 C-116 62.66 -116 63.32 -116 64 C-116.59 64.25 -117.18 64.51 -117.79 64.77 C-122.73 66.91 -122.73 66.91 -127.44 69.5 C-129.82 70.89 -132.05 71.83 -134.62 72.81 C-139.55 74.72 -144.07 77.12 -148.65 79.73 C-151 81 -151 81 -154 82 C-154.08 83.2 -154.16 84.39 -154.25 85.62 C-155.21 92.84 -159.78 97.37 -165.11 101.98 C-170.88 106.01 -177.46 108.47 -184 111 C-184.7 111.28 -185.4 111.55 -186.11 111.84 C-192.31 114.24 -197.82 115.69 -204.44 114.25 C-207 113 -207 113 -209 110 C-209.34 107.53 -209.34 107.53 -209 105 C-203.31 97.64 -193.51 92.71 -184.87 89.78 C-182.17 88.66 -180.05 86.97 -177.74 85.21 C-175 83.31 -172.1 82.2 -169 81 C-170.39 78.6 -171.81 76.26 -173.43 74.02 C-178.58 66.79 -182.18 59.23 -180.7 50.17 C-178.59 43.64 -173.82 39.33 -168 36 C-166.93 35.38 -165.86 34.76 -164.75 34.12 C-163.87 33.64 -163.87 33.64 -162.98 33.14 C-161.52 32.3 -160.08 31.42 -158.65 30.52 C-153.92 27.56 -149.54 25.3 -144.19 23.71 C-141.97 22.99 -139.97 22.08 -137.88 21.06 C-133.07 18.84 -128.09 17.58 -122.96 16.31 C-119.71 15.7 -119.71 15.7 -117 14 C-115.32 13.65 -113.63 13.34 -111.94 13.06 C-108.55 12.48 -105.25 11.85 -101.94 10.94 C-94.79 9.08 -86.36 8.06 -79 9 C-77 11 -77 11 -77 14 C-78.94 14.22 -78.94 14.22 -80.93 14.45 C-91.79 15.78 -101.84 17.88 -112.2 21.41 C-115.48 22.53 -118.76 23.5 -122.12 24.37 C-134.51 27.6 -145.58 32.18 -156.95 38.06 C-158.96 38.98 -160.85 39.54 -163 40 C-163 40.66 -163 41.32 -163 42 C-164.09 42.56 -165.19 43.11 -166.31 43.69 C-169.73 45.68 -171.56 47.19 -173 51 C-173.75 56.7 -173.32 61.18 -170 66 C-165.91 70.95 -165.91 70.95 -161 75 C-156.9 74.86 -153.87 73.64 -150.31 71.69 C-137.48 65 -137.48 65 -131 65 C-131 64.34 -131 63.68 -131 63 C-130.14 62.67 -129.29 62.35 -128.4 62.01 C-117.97 59.08 -117.97 59.08 -110 53 C-107.68 51.93 -105.37 50.95 -103 50 C-101.75 49.44 -100.5 48.88 -99.25 48.31 C-96 47 -96 47 -93 47 C-93 46.34 -93 45.68 -93 45 C-90.23 42.99 -87.97 41.99 -84.62 41.19 C-80.01 39.68 -77.48 37.29 -74 34 C-61.24 22.26 -19.52 -13.01 0 0 Z " fill="#EFF2E8" transform="translate(1020,1261)"/>
<path d="M0 0 C0.9 3.48 1.28 5.37 -0.19 8.71 C-0.79 9.59 -1.38 10.47 -2 11.38 C-2.65 12.33 -3.3 13.29 -3.96 14.27 C-6.26 17.35 -8.74 20.16 -11.33 23 C-13.09 25.11 -14.4 27.24 -15.75 29.62 C-18.76 34.88 -22.4 39.49 -26.22 44.18 C-28.5 47 -30.58 49.65 -32 53 C-32.66 53 -33.32 53 -34 53 C-34.23 53.54 -34.45 54.07 -34.69 54.62 C-36.42 57.75 -38.71 60.26 -41 63 C-42.01 64.66 -43.01 66.33 -44 68 C-44.97 69.32 -45.95 70.63 -46.94 71.94 C-50.07 76.07 -52.94 80.31 -55.7 84.71 C-56.31 85.69 -56.93 86.68 -57.56 87.69 C-58.14 88.62 -58.72 89.55 -59.32 90.51 C-61 93 -61 93 -62.62 94.59 C-64.27 96.28 -64.74 97.69 -65.44 99.94 C-66.67 103.46 -67.99 105.67 -71 108 C-71.66 108 -72.32 108 -73 108 C-73.4 109.39 -73.4 109.39 -73.81 110.81 C-74.99 113.98 -75.72 114.73 -78 117 C-78.86 118.43 -79.67 119.89 -80.44 121.38 C-82.34 124.91 -84.43 127.91 -87 131 C-88.04 132.64 -89.04 134.31 -90 136 C-90.62 137.07 -91.24 138.14 -91.88 139.25 C-94.28 143.48 -96.64 147.74 -99 152 C-99.66 152 -100.32 152 -101 152 C-101.27 152.73 -101.55 153.46 -101.83 154.21 C-102.95 156.88 -104.23 159.22 -105.75 161.69 C-106.28 162.55 -106.8 163.41 -107.34 164.3 C-109 167 -109 167 -110.66 169.7 C-111.18 170.56 -111.71 171.42 -112.25 172.31 C-112.73 173.09 -113.21 173.87 -113.7 174.68 C-115.04 177.07 -116.01 179.45 -117 182 C-118.5 185.29 -120.03 188.57 -121.56 191.84 C-122.79 194.54 -123.93 197.24 -125 200 C-125.66 200 -126.32 200 -127 200 C-126.67 201.98 -126.34 203.96 -126 206 C-125.24 205.17 -124.47 204.35 -123.69 203.5 C-121 201 -121 201 -118 201 C-118 200.34 -118 199.68 -118 199 C-112.64 194 -112.64 194 -109 194 C-108.94 193.4 -108.88 192.8 -108.81 192.19 C-108 190 -108 190 -105.75 188.69 C-102.74 186.84 -101.4 184.81 -99.46 181.92 C-96.82 178.45 -93.52 175.55 -90 173 C-89.34 173 -88.68 173 -88 173 C-87.79 172.32 -87.58 171.63 -87.36 170.93 C-85.56 167.06 -83.02 164.28 -80.19 161.12 C-77.04 157.58 -73.98 154.07 -71.25 150.19 C-69.32 147.46 -67.35 145.35 -65 143 C-64.71 142.39 -64.42 141.78 -64.12 141.15 C-62.8 138.61 -61.15 136.84 -59.19 134.75 C-56.48 131.8 -54.28 128.98 -52.31 125.5 C-50.72 122.81 -50.31 122.14 -47.38 120.81 C-45 121 -45 121 -43.38 122.19 C-40.3 126.23 -41.5 132.17 -42 137 C-42.59 140.95 -43.3 144.88 -44 148.81 C-47.73 167.3 -47.73 167.3 -42.09 184.59 C-41.73 185.06 -41.37 185.52 -41 186 C-33.73 186.55 -28.53 186.67 -22.62 182.09 C-21 181 -21 181 -18 181 C-18 180.34 -18 179.68 -18 179 C-16.95 178.55 -15.9 178.09 -14.81 177.62 C-9.92 175.23 -5.86 171.88 -1.75 168.35 C1.08 166.04 2.71 165.02 6.4 164.7 C7.69 164.85 7.69 164.85 9 165 C9.33 164.01 9.66 163.02 10 162 C12 160.39 12 160.39 14.44 158.81 C15.24 158.28 16.04 157.75 16.87 157.21 C19 156 19 156 21 156 C20.67 156.99 20.34 157.98 20 159 C19.01 159.33 18.02 159.66 17 160 C16.15 160.85 15.31 161.69 14.44 162.56 C13.63 163.37 12.83 164.17 12 165 C11.34 165 10.68 165 10 165 C10 165.66 10 166.32 10 167 C9.34 167 8.68 167 8 167 C7.34 168.32 6.68 169.64 6 171 C5.34 171 4.68 171 4 171 C3.67 171.99 3.34 172.98 3 174 C1.03 175.61 -0.93 177.1 -3 178.56 C-7.09 181.23 -7.09 181.23 -10 185 C-10.99 185.33 -11.98 185.66 -13 186 C-13.6 186.62 -14.19 187.25 -14.8 187.89 C-19.98 192.87 -28.28 195.27 -35.38 195.56 C-40.19 195.3 -43.07 193.75 -47 191 C-47.67 190.57 -48.33 190.15 -49.02 189.71 C-53.25 186.06 -55.01 180.39 -56 175 C-56.52 166.83 -56.13 158.59 -53 151 C-52.76 148.1 -52.76 148.1 -52.88 145.19 C-52.89 144.21 -52.91 143.24 -52.93 142.23 C-52.95 141.49 -52.98 140.76 -53 140 C-53.6 140.82 -54.21 141.64 -54.83 142.48 C-55.64 143.57 -56.44 144.66 -57.25 145.75 C-57.65 146.29 -58.04 146.83 -58.45 147.38 C-60.26 149.82 -62.07 152.07 -64.23 154.2 C-66.24 155.98 -66.24 155.98 -67 159 C-68.38 160.1 -69.76 161.2 -71.14 162.3 C-75.26 166.05 -78.54 170.65 -82 175 C-83.6 176.98 -85.2 178.96 -86.81 180.94 C-87.87 182.25 -87.87 182.25 -88.96 183.59 C-90.88 185.86 -92.79 188 -95 190 C-95.66 190 -96.32 190 -97 190 C-97.27 190.64 -97.54 191.28 -97.81 191.94 C-99 194 -99 194 -102 195 C-102 195.66 -102 196.32 -102 197 C-102.66 197.33 -103.32 197.66 -104 198 C-104.33 198.99 -104.66 199.98 -105 201 C-105.7 201.39 -106.4 201.78 -107.12 202.19 C-110.64 204.4 -112.78 207.12 -115.35 210.36 C-117 212 -117 212 -120 212 C-120.33 212.99 -120.66 213.98 -121 215 C-124.08 217.49 -127.35 219.45 -131 221 C-134.1 220.51 -135.78 220.22 -138 218 C-138.39 212.02 -137.55 207.64 -135.31 202.12 C-135.04 201.43 -134.77 200.73 -134.49 200.02 C-132.61 195.29 -130.51 190.72 -128.14 186.22 C-127.01 184.02 -126.03 181.79 -125.06 179.5 C-122.82 174.39 -119.93 169.74 -117 165 C-115.96 163.25 -114.91 161.5 -113.88 159.75 C-112.28 157.09 -110.67 154.51 -108.94 151.94 C-107.39 149.59 -106.03 147.28 -104.69 144.81 C-101.18 138.42 -97.45 132.05 -92.88 126.36 C-90.88 124.01 -90.88 124.01 -89.5 121 C-87.98 117.95 -86.14 115.64 -84 113 C-83.51 111.52 -83.51 111.52 -83 110 C-82.34 110 -81.68 110 -81 110 C-80.62 108.92 -80.62 108.92 -80.23 107.82 C-78.91 104.79 -77.31 102.5 -75.31 99.88 C-71.88 95.26 -68.75 90.54 -65.7 85.66 C-64.1 83.16 -62.42 80.73 -60.69 78.31 C-57.68 74.08 -54.92 69.73 -52.19 65.31 C-47.3 57.42 -42.21 49.69 -37 42 C-36.49 41.24 -35.97 40.47 -35.44 39.69 C-29.42 30.79 -23.38 21.95 -16.8 13.45 C-15.03 11.04 -13.51 8.58 -12 6 C-8.67 1.27 -8.67 1.27 -6 0.19 C-4.01 0 -2 0 0 0 Z " fill="#EFF2E8" transform="translate(1246,1117)"/>
<path d="M0 0 C0.33 1.32 0.66 2.64 1 4 C0.33 4.11 -0.34 4.21 -1.03 4.32 C-4.12 4.81 -7.22 5.31 -10.31 5.81 C-11.89 6.06 -11.89 6.06 -13.5 6.31 C-22.83 7.84 -31.57 9.62 -40 14 C-42.36 14.7 -44.74 15.35 -47.12 15.94 C-61.75 19.72 -85.5 26.26 -94.27 39.99 C-95.93 44.57 -95.46 48.75 -93.81 53.19 C-91.83 56.26 -89.67 58.52 -87 61 C-86.34 61.76 -85.68 62.53 -85 63.31 C-83.13 65.21 -83.13 65.21 -80.65 65.25 C-77.69 64.97 -76.14 64.23 -73.62 62.69 C-66.94 58.78 -60.57 56.46 -53 55 C-53 54.34 -53 53.68 -53 53 C-51.71 52.51 -51.71 52.51 -50.4 52.01 C-39.25 47.83 -39.25 47.83 -28.62 42.5 C-24.25 40.01 -19.82 38.4 -15 37 C-15 36.34 -15 35.68 -15 35 C-11.27 32.97 -9.33 32 -5 32 C-5 31.34 -5 30.68 -5 30 C-3.52 30.49 -3.52 30.49 -2 31 C-4.25 33.5 -4.25 33.5 -7 36 C-8.32 36 -9.64 36 -11 36 C-11 36.99 -11 37.98 -11 39 C-11.95 39.29 -12.9 39.58 -13.88 39.88 C-17.05 40.77 -17.05 40.77 -19 43 C-19.99 43 -20.98 43 -22 43 C-22.21 43.6 -22.41 44.2 -22.62 44.81 C-24.84 48.33 -28.24 49.48 -32.12 50.62 C-33.48 50.9 -34.83 51.14 -36.19 51.38 C-36.79 51.58 -37.38 51.79 -38 52 C-38.33 52.99 -38.66 53.98 -39 55 C-40.98 55.94 -42.98 56.86 -45.01 57.7 C-48.72 59.31 -52.32 61.11 -55.94 62.94 C-56.97 63.46 -56.97 63.46 -58.03 63.99 C-61.09 65.53 -64.14 67.07 -67.18 68.63 C-68.07 69.08 -68.96 69.53 -69.88 70 C-70.64 70.39 -71.4 70.78 -72.18 71.19 C-74 72 -74 72 -76 72 C-75.88 72.97 -75.75 73.94 -75.62 74.94 C-75.66 80.33 -78.6 84.04 -82 88 C-92.58 98.25 -110.1 105.52 -124.91 105.35 C-127 105 -127 105 -129.56 102.81 C-131.88 98.28 -131.88 98.28 -131 95 C-124.84 88.56 -116.53 83.77 -108.31 80.38 C-102.91 78.13 -97.87 75.24 -93 72 C-92.01 72 -91.02 72 -90 72 C-90.38 71.52 -90.75 71.03 -91.14 70.53 C-101.18 57.38 -101.18 57.38 -102 48 C-102.66 47.67 -103.32 47.34 -104 47 C-102.26 38.57 -98.64 32.55 -92 27 C-90.04 25.93 -88.03 24.93 -86 24 C-84.8 23.24 -83.61 22.47 -82.43 21.69 C-59.78 7.42 -26.67 -1.95 0 0 Z " fill="#EEF1E7" transform="translate(1133,1247)"/>
<path d="M0 0 C2 2 2 2 2 5 C0.7 5.15 -0.59 5.29 -1.93 5.45 C-12.79 6.78 -22.84 8.88 -33.2 12.41 C-36.48 13.53 -39.76 14.5 -43.12 15.37 C-55.51 18.6 -66.58 23.18 -77.95 29.06 C-79.96 29.98 -81.85 30.54 -84 31 C-84 31.66 -84 32.32 -84 33 C-85.09 33.56 -86.19 34.11 -87.31 34.69 C-90.73 36.68 -92.56 38.19 -94 42 C-94.75 47.7 -94.32 52.18 -91 57 C-86.91 61.95 -86.91 61.95 -82 66 C-77.9 65.86 -74.87 64.64 -71.31 62.69 C-58.48 56 -58.48 56 -52 56 C-52 55.34 -52 54.68 -52 54 C-50.71 53.51 -50.71 53.51 -49.4 53.01 C-38.97 50.08 -38.97 50.08 -31 44 C-28.68 42.93 -26.37 41.95 -24 41 C-22.75 40.44 -21.5 39.88 -20.25 39.31 C-17 38 -17 38 -14 38 C-14 37.34 -14 36.68 -14 36 C-11.62 34.31 -11.62 34.31 -9 33 C-8.34 33.33 -7.68 33.66 -7 34 C-7.33 34.99 -7.66 35.98 -8 37 C-8.66 37 -9.32 37 -10 37 C-10.33 37.99 -10.66 38.98 -11 40 C-14.28 41.58 -17.55 42.85 -21 44 C-21.5 44.99 -21.5 44.99 -22 46 C-26.66 49.61 -31.37 51.35 -37 53 C-37 53.66 -37 54.32 -37 55 C-37.59 55.25 -38.18 55.51 -38.79 55.77 C-43.73 57.91 -43.73 57.91 -48.44 60.5 C-50.82 61.89 -53.05 62.83 -55.62 63.81 C-60.55 65.72 -65.07 68.12 -69.65 70.73 C-72 72 -72 72 -75 73 C-75.08 74.2 -75.16 75.39 -75.25 76.62 C-76.21 83.84 -80.78 88.37 -86.11 92.98 C-91.88 97.01 -98.46 99.47 -105 102 C-105.7 102.28 -106.4 102.55 -107.11 102.84 C-113.31 105.24 -118.82 106.69 -125.44 105.25 C-128 104 -128 104 -130 101 C-130.34 98.53 -130.34 98.53 -130 96 C-124.31 88.64 -114.51 83.71 -105.87 80.78 C-103.17 79.66 -101.05 77.97 -98.74 76.21 C-96 74.31 -93.1 73.2 -90 72 C-91.39 69.6 -92.81 67.26 -94.43 65.02 C-99.58 57.79 -103.18 50.23 -101.7 41.17 C-99.59 34.64 -94.82 30.33 -89 27 C-87.93 26.38 -86.86 25.76 -85.75 25.12 C-84.87 24.64 -84.87 24.64 -83.98 24.14 C-82.52 23.3 -81.08 22.42 -79.65 21.52 C-74.92 18.56 -70.54 16.3 -65.19 14.71 C-62.97 13.99 -60.97 13.08 -58.88 12.06 C-54.07 9.84 -49.09 8.58 -43.96 7.31 C-40.71 6.7 -40.71 6.7 -38 5 C-36.32 4.65 -34.63 4.34 -32.94 4.06 C-29.55 3.48 -26.25 2.85 -22.94 1.94 C-15.79 0.08 -7.36 -0.94 0 0 Z " fill="#EEF1E7" transform="translate(941,1270)"/>
<path d="M0 0 C-1.41 3.31 -3.06 5.15 -5.81 7.44 C-10.18 11.14 -14.16 14.97 -17.81 19.38 C-20.6 22.67 -23.66 25.47 -26.95 28.26 C-28.26 29.37 -29.56 30.51 -30.83 31.68 C-35.88 36.29 -41.37 40.1 -47.05 43.89 C-49.98 45.86 -49.98 45.86 -52.1 48.14 C-54.21 50.2 -55.87 51 -58.62 52 C-59.93 52.49 -59.93 52.49 -61.26 52.98 C-62.16 53.32 -63.07 53.65 -64 54 C-65.83 54.75 -67.67 55.5 -69.5 56.25 C-73.75 58 -73.75 58 -76 58 C-76.33 59.32 -76.66 60.64 -77 62 C-80.3 62 -83.6 62 -87 62 C-86.62 56.96 -83.93 54.23 -80.56 50.75 C-80.02 50.18 -79.48 49.61 -78.92 49.02 C-61.66 31.02 -37.44 12.38 -13.31 4.79 C-10.05 3.67 -6.96 2.24 -3.85 0.77 C-2 0 -2 0 0 0 Z " fill="#05517C" transform="translate(1344,1236)"/>
<path d="M0 0 C-0.66 1.98 -1.32 3.96 -2 6 C-2.66 6 -3.32 6 -4 6 C-4.23 6.87 -4.45 7.73 -4.69 8.62 C-6.2 12.51 -8.28 14.88 -11 18 C-11.65 19.12 -11.65 19.12 -12.31 20.27 C-14.43 23.7 -16.97 26.6 -19.62 29.62 C-24.26 34.94 -28.72 40.33 -33.06 45.89 C-34.96 47.96 -36.42 48.96 -39 50 C-39 50.66 -39 51.32 -39 52 C-39.66 52 -40.32 52 -41 52 C-41.25 52.57 -41.5 53.14 -41.75 53.73 C-43.18 56.34 -44.85 58.15 -46.94 60.25 C-47.63 60.96 -48.32 61.66 -49.03 62.39 C-51 64 -51 64 -54 64 C-54.25 64.58 -54.49 65.16 -54.75 65.76 C-58.63 72.69 -67.49 78.59 -74 83 C-74.66 83 -75.32 83 -76 83 C-76.33 83.99 -76.66 84.98 -77 86 C-79.56 87.19 -79.56 87.19 -82 88 C-80.83 84.66 -79.81 82.23 -77 80 C-76.34 80 -75.68 80 -75 80 C-74.67 79.01 -74.34 78.02 -74 77 C-73.34 77 -72.68 77 -72 77 C-72 76.01 -72 75.02 -72 74 C-70.9 72.83 -69.79 71.68 -68.62 70.59 C-66.64 68.65 -64.83 66.59 -63 64.5 C-60.1 61.22 -57.14 58.06 -54 55 C-53.48 54.46 -52.97 53.92 -52.43 53.37 C-50.99 51.87 -49.5 50.43 -48 49 C-47.34 49 -46.68 49 -46 49 C-45.76 48.28 -45.53 47.57 -45.28 46.83 C-43.79 43.54 -41.93 41.35 -39.5 38.69 C-38.71 37.8 -37.91 36.92 -37.09 36.01 C-35 34 -35 34 -33 34 C-32.77 33.11 -32.55 32.21 -32.31 31.29 C-30.79 27.48 -29.13 25.92 -26 23.31 C-23.15 20.92 -21.07 19.11 -19 16 C-18.34 16 -17.68 16 -17 16 C-16.9 15.36 -16.79 14.72 -16.69 14.06 C-16.46 13.38 -16.23 12.7 -16 12 C-15.01 11.67 -14.02 11.34 -13 11 C-11.48 9.5 -11.48 9.5 -10.06 7.69 C-9.54 7.06 -9.02 6.43 -8.48 5.79 C-7.99 5.2 -7.5 4.61 -7 4 C-3.41 0 -3.41 0 0 0 Z " fill="#0B557F" transform="translate(1547,1091)"/>
<path d="M0 0 C0.66 0 1.32 0 2 0 C0.69 6.26 -2.92 9.23 -7.5 13.31 C-8.17 13.93 -8.84 14.54 -9.53 15.17 C-12.37 17.76 -15.22 20.32 -18.12 22.84 C-28.19 31.69 -37.45 41.42 -46.87 50.96 C-49.27 53.39 -51.68 55.82 -54.09 58.25 C-54.82 58.99 -55.56 59.74 -56.31 60.52 C-57 61.21 -57.69 61.9 -58.4 62.61 C-59.3 63.52 -59.3 63.52 -60.22 64.45 C-62.06 66.05 -63.81 66.96 -66 68 C-67.55 69.38 -69.05 70.82 -70.52 72.29 C-71.38 73.15 -72.24 74.01 -73.12 74.89 C-74.01 75.8 -74.9 76.7 -75.81 77.62 C-76.69 78.5 -77.57 79.38 -78.47 80.29 C-82.92 84.76 -87.22 89.3 -91.33 94.08 C-94.28 97.47 -97.36 100.73 -100.44 104 C-101.39 105.02 -101.39 105.02 -102.37 106.06 C-103.91 107.71 -105.45 109.35 -107 111 C-107.66 110.34 -108.32 109.68 -109 109 C-108.29 108.3 -107.57 107.6 -106.84 106.88 C-105.87 105.92 -104.9 104.96 -103.94 104 C-103.47 103.54 -103.01 103.08 -102.53 102.61 C-99.83 99.94 -97.28 97.19 -94.81 94.31 C-91.02 89.96 -87.01 85.9 -82.91 81.84 C-82.16 81.1 -81.41 80.35 -80.63 79.58 C-77.46 76.42 -74.28 73.27 -71.1 70.12 C-68.76 67.8 -66.43 65.48 -64.09 63.16 C-63.39 62.46 -62.68 61.76 -61.95 61.04 C-58.01 57.12 -54.29 53.09 -50.66 48.89 C-48.16 46.04 -45.5 43.37 -42.8 40.71 C-42.25 40.15 -41.69 39.6 -41.12 39.03 C-39.38 37.29 -37.63 35.55 -35.88 33.81 C-34.7 32.64 -33.52 31.47 -32.34 30.29 C-26.94 24.91 -26.94 24.91 -24.4 22.4 C-23.02 21.02 -21.67 19.61 -20.32 18.19 C-18 16 -18 16 -15 15 C-14.72 14.41 -14.44 13.83 -14.16 13.23 C-12.54 10.11 -10.24 8.53 -7.5 6.38 C-3.62 3.33 -3.62 3.33 0 0 Z " fill="#367392" transform="translate(943,491)"/>
<path d="M0 0 C-1.39 3.13 -3.03 5.32 -5.44 7.75 C-6.03 8.36 -6.63 8.98 -7.25 9.61 C-9 11 -9 11 -12 11 C-12 11.66 -12 12.32 -12 13 C-17.86 17.08 -23.97 20.56 -31 22 C-31 22.66 -31 23.32 -31 24 C-31.64 24.17 -32.28 24.34 -32.94 24.52 C-37.22 25.72 -41.09 26.88 -44.88 29.25 C-48 31 -48 31 -50.2 30.61 C-50.79 30.41 -51.39 30.21 -52 30 C-47.93 23.82 -44.31 20.04 -37.43 17.17 C-34.58 15.8 -32.44 14.01 -30 12 C-20.9 5.62 -11.39 0 0 0 Z " fill="#08547E" transform="translate(1007,1268)"/>
<path d="M0 0 C-1.44 3.66 -2.99 4.83 -6.44 6.62 C-10.56 8.96 -13.78 11.52 -17.19 14.81 C-28.23 25.12 -46.82 37.05 -62 39 C-62 39.66 -62 40.32 -62 41 C-63.79 41.86 -65.58 42.72 -67.38 43.56 C-68.37 44.04 -69.37 44.51 -70.4 45 C-71.69 45.5 -71.69 45.5 -73 46 C-73.66 45.67 -74.32 45.34 -75 45 C-74.22 44.6 -73.44 44.2 -72.63 43.79 C-71.62 43.26 -70.61 42.73 -69.56 42.19 C-68.05 41.4 -68.05 41.4 -66.5 40.61 C-63.71 39.19 -63.71 39.19 -63 36 C-60.77 34.66 -60.77 34.66 -57.81 33.29 C-56.19 32.51 -56.19 32.51 -54.53 31.72 C-53.36 31.18 -52.2 30.63 -51 30.06 C-36.41 22.98 -23.89 14.87 -12.08 3.79 C-8.35 0.59 -4.91 -1.64 0 0 Z " fill="#DCE5DF" transform="translate(1003,1482)"/>
<path d="M0 0 C0 4.19 -2.28 6.27 -4.81 9.38 C-5.31 10 -5.81 10.62 -6.32 11.26 C-10.04 15.89 -13.88 20.4 -17.74 24.9 C-23.19 31.32 -28.22 38.06 -33.3 44.77 C-36.15 48.51 -39.04 52.22 -41.94 55.94 C-42.52 56.68 -43.1 57.43 -43.7 58.2 C-46.63 61.96 -49.56 65.72 -52.5 69.47 C-60.88 80.16 -69.01 91.02 -77 102 C-77.6 102.82 -78.2 103.64 -78.81 104.49 C-80.59 106.93 -82.36 109.37 -84.12 111.81 C-84.66 112.55 -85.19 113.28 -85.74 114.04 C-88.58 117.97 -91.34 121.94 -94 126 C-94.77 124.38 -94.77 124.38 -95 122 C-93.62 119.81 -92.27 117.97 -90.62 116 C-89.68 114.83 -88.74 113.65 -87.8 112.48 C-87.09 111.6 -87.09 111.6 -86.36 110.7 C-84.44 108.3 -82.59 105.84 -80.75 103.38 C-80.01 102.39 -79.28 101.41 -78.52 100.39 C-76.63 97.86 -74.76 95.31 -72.89 92.76 C-65.87 83.2 -58.76 73.71 -51.55 64.29 C-48.21 59.92 -44.9 55.53 -41.69 51.06 C-35.97 43.12 -29.83 35.48 -23.66 27.88 C-23.12 27.2 -22.57 26.52 -22 25.82 C-20.94 24.51 -19.87 23.19 -18.8 21.89 C-16.68 19.27 -15.07 17.22 -14 14 C-13.36 13.53 -12.72 13.05 -12.06 12.56 C-9.91 11.18 -9.91 11.18 -9.13 9.14 C-7.76 6.54 -6.12 5.13 -3.88 3.25 C-3.15 2.64 -2.43 2.02 -1.68 1.39 C-1.13 0.93 -0.57 0.47 0 0 Z " fill="#7EA4B4" transform="translate(745,702)"/>
<path d="M0 0 C0.49 1.98 0.49 1.98 1 4 C-9.05 13.5 -20.53 19.01 -34 22 C-34 21.01 -34 20.02 -34 19 C-31.51 17.13 -31.51 17.13 -28.12 15.12 C-27.53 14.77 -26.94 14.42 -26.33 14.05 C-22.14 11.59 -17.88 9.34 -13.5 7.23 C-8.92 4.98 -4.47 2.47 0 0 Z " fill="#0F5880" transform="translate(1047,1323)"/>
<path d="M0 0 C0.49 0.99 0.49 0.99 1 2 C0.34 2.33 -0.32 2.66 -1 3 C-1.27 3.76 -1.54 4.52 -1.82 5.3 C-3.28 8.63 -5.01 10.03 -7.88 12.25 C-9.17 13.28 -9.17 13.28 -10.49 14.33 C-12.86 15.91 -14.31 16.34 -17 17 C-19.27 18.59 -19.27 18.59 -21.5 20.5 C-25.58 23.91 -25.58 23.91 -27.89 24.4 C-31.28 25.36 -33.64 27.79 -36.25 30.06 C-36.8 30.53 -37.36 31.01 -37.93 31.49 C-39.29 32.66 -40.65 33.83 -42 35 C-42.66 34.67 -43.32 34.34 -44 34 C-42.45 29.64 -39.06 27.43 -35.5 24.75 C-34.23 23.78 -32.96 22.81 -31.7 21.84 C-30.76 21.12 -30.76 21.12 -29.8 20.39 C-26.49 17.83 -23.29 15.14 -20.09 12.46 C-17.96 10.97 -16.51 10.52 -14 10 C-9.51 7.72 -6.89 6.13 -4 2 C-1.81 0.75 -1.81 0.75 0 0 Z " fill="#49809B" transform="translate(1173,305)"/>
<path d="M0 0 C-0.08 2.68 -0.49 4.45 -2.33 6.44 C-6.68 10.18 -11.04 12.87 -16.25 15.25 C-16.99 15.59 -17.73 15.94 -18.49 16.29 C-24.19 18.85 -29.74 20.46 -36 21 C-34.54 16.62 -31.16 15.71 -27.25 13.75 C-25.7 12.95 -24.15 12.15 -22.6 11.36 C-21.83 10.96 -21.05 10.56 -20.25 10.16 C-17.02 8.5 -13.82 6.78 -10.62 5.06 C-9.1 4.24 -9.1 4.24 -7.54 3.41 C-1.4 0 -1.4 0 0 0 Z " fill="#0D5680" transform="translate(857,1347)"/>
<path d="M0 0 C0 3 0 3 -1.5 4.76 C-2.18 5.4 -2.86 6.03 -3.56 6.69 C-6.26 9.29 -8.83 11.89 -11.25 14.75 C-14.82 18.91 -18.69 22.72 -22.59 26.57 C-26.03 29.99 -29.28 33.51 -32.43 37.21 C-34.05 39.05 -35.75 40.78 -37.5 42.5 C-41.21 46.16 -44.61 50.04 -48 54 C-48.88 55.02 -48.88 55.02 -49.77 56.06 C-51.19 57.71 -52.59 59.35 -54 61 C-54.66 60.67 -55.32 60.34 -56 60 C-55.02 57.81 -54.26 56.23 -52.44 54.62 C-50.4 52.32 -50.45 49.99 -50 47 C-49.01 46.5 -49.01 46.5 -48 46 C-47.34 46.33 -46.68 46.66 -46 47 C-46 46.34 -46 45.68 -46 45 C-45.41 44.9 -44.81 44.8 -44.2 44.7 C-41.59 43.87 -40.59 42.88 -38.75 40.86 C-38.15 40.21 -37.55 39.56 -36.93 38.88 C-36.29 38.18 -35.65 37.48 -35 36.75 C-34.33 36.03 -33.67 35.3 -32.98 34.55 C-30.98 32.38 -28.99 30.19 -27 28 C-25 25.81 -23 23.62 -21 21.44 C-20.53 20.93 -20.07 20.42 -19.59 19.89 C-13.27 13.06 -6.63 6.54 0 0 Z M-53 51 C-52.34 51.33 -51.68 51.66 -51 52 C-52.98 52.99 -52.98 52.99 -55 54 C-54.34 53.01 -53.68 52.02 -53 51 Z " fill="#23668A" transform="translate(879,556)"/>
<path d="M0 0 C0.99 0.99 0.99 0.99 2 2 C1.48 2.52 0.95 3.04 0.41 3.58 C-4.55 8.52 -9.5 13.46 -14.46 18.41 C-17 20.95 -19.55 23.49 -22.1 26.02 C-24.57 28.48 -27.03 30.94 -29.49 33.4 C-30.88 34.78 -32.26 36.16 -33.65 37.54 C-38.64 42.53 -43.4 47.64 -48 53 C-49.24 54.36 -50.49 55.72 -51.75 57.06 C-52.36 57.71 -52.96 58.36 -53.59 59.04 C-54.2 59.68 -54.81 60.33 -55.44 61 C-56.39 62.02 -56.39 62.02 -57.37 63.06 C-58.91 64.71 -60.45 66.35 -62 68 C-62.66 67.34 -63.32 66.68 -64 66 C-63.29 65.3 -62.57 64.6 -61.84 63.88 C-60.87 62.92 -59.9 61.96 -58.94 61 C-58.47 60.54 -58.01 60.08 -57.53 59.61 C-54.83 56.94 -52.28 54.19 -49.81 51.31 C-46.02 46.96 -42.01 42.9 -37.91 38.84 C-37.16 38.1 -36.41 37.35 -35.63 36.58 C-32.46 33.42 -29.28 30.27 -26.1 27.12 C-23.76 24.8 -21.43 22.48 -19.09 20.16 C-18.39 19.46 -17.68 18.76 -16.95 18.04 C-12.96 14.06 -9.15 9.99 -5.48 5.71 C-3.75 3.71 -1.91 1.83 0 0 Z " fill="#DBE4DE" transform="translate(898,534)"/>
<path d="M0 0 C4.29 7.52 3.15 17.6 3 26 C2.67 26 2.34 26 2 26 C2.01 27.25 2.02 28.51 2.03 29.8 C2.07 34.53 2.09 39.25 2.11 43.97 C2.12 46.01 2.13 48.04 2.15 50.07 C2.25 61.9 2.04 73.33 0 85 C-0.33 85 -0.66 85 -1 85 C-1.2 83 -1.38 81 -1.56 79 C-1.67 77.89 -1.77 76.77 -1.88 75.62 C-2 72 -2 72 -1.52 68.48 C-0.83 63.23 -0.86 58.02 -0.87 52.74 C-0.87 51.67 -0.87 50.6 -0.86 49.5 C-0.86 47.25 -0.87 45 -0.87 42.75 C-0.87 39.34 -0.87 35.93 -0.86 32.53 C-0.85 16.74 -0.85 16.74 -2 1 C-1.34 0.67 -0.68 0.34 0 0 Z " fill="#4B819C" transform="translate(1341,326)"/>
<path d="M0 0 C0.66 0.33 1.32 0.66 2 1 C-0.31 3.31 -2.62 5.62 -5 8 C-4.34 8.66 -3.68 9.32 -3 10 C-4.66 10.62 -6.32 11.24 -7.98 11.86 C-10.81 13.46 -12.73 15.67 -15 18 C-17.27 20.07 -19.6 22.06 -21.94 24.06 C-22.83 24.84 -22.83 24.84 -23.74 25.63 C-27.34 28.72 -31 31.45 -35 34 C-35.66 32.68 -36.32 31.36 -37 30 C-35.68 28.68 -34.36 27.36 -33 26 C-32.01 26.33 -31.02 26.66 -30 27 C-28.16 25.94 -28.16 25.94 -26.44 24.31 C-25.84 23.79 -25.24 23.27 -24.62 22.74 C-22.93 21.1 -22.93 21.1 -22.12 19.08 C-20.85 16.73 -19.57 15.56 -17.48 13.91 C-16.79 13.35 -16.09 12.8 -15.38 12.22 C-14.66 11.65 -13.93 11.09 -13.19 10.5 C-12.48 9.93 -11.76 9.36 -11.03 8.78 C-9.02 7.18 -7.01 5.59 -5 4 C-3.33 2.67 -1.67 1.33 0 0 Z " fill="#6593A8" transform="translate(1036,412)"/>
<path d="M0 0 C2.97 0.33 5.94 0.66 9 1 C9 1.66 9 2.32 9 3 C9.62 3.09 10.24 3.17 10.88 3.26 C19.27 4.59 27.02 7.18 35 10 C35 10.66 35 11.32 35 12 C36.98 12.66 38.96 13.32 41 14 C37.16 15.28 35.56 14.48 31.71 13.27 C29.83 12.68 29.83 12.68 27.92 12.08 C27.26 11.87 26.61 11.67 25.93 11.45 C23.97 10.82 22.01 10.21 20.04 9.6 C12.9 7.36 5.89 4.93 -1 2 C-0.67 1.34 -0.34 0.68 0 0 Z " fill="#719CAE" transform="translate(1038,1488)"/>
<path d="M0 0 C2.31 0 4.62 0 7 0 C6.04 0.46 6.04 0.46 5.06 0.94 C3.06 1.83 3.06 1.83 2 3 C0.33 3.04 -1.33 3.04 -3 3 C-3 3.66 -3 4.32 -3 5 C-7.04 5.05 -11.08 5.09 -15.12 5.11 C-16.49 5.12 -17.86 5.13 -19.23 5.15 C-21.21 5.18 -23.19 5.19 -25.17 5.2 C-26.36 5.21 -27.55 5.22 -28.77 5.23 C-31.95 5 -34.14 4.36 -37 3 C-37 2.67 -37 2.34 -37 2 C-33.02 1.86 -29.03 1.71 -25.05 1.57 C-23.04 1.5 -21.02 1.43 -19.01 1.36 C-12.67 1.13 -6.35 0.94 0 1 C0 0.67 0 0.34 0 0 Z " fill="#1D6287" transform="translate(1212,1516)"/>
<path d="M0 0 C0.66 0.33 1.32 0.66 2 1 C-1.49 6.28 -5 11.55 -8.52 16.81 C-9.71 18.6 -10.9 20.39 -12.09 22.19 C-13.8 24.77 -15.52 27.34 -17.24 29.91 C-18.04 31.12 -18.04 31.12 -18.85 32.36 C-19.6 33.47 -19.6 33.47 -20.36 34.6 C-21.02 35.59 -21.02 35.59 -21.69 36.6 C-22.34 37.29 -22.34 37.29 -23 38 C-23.99 38 -24.98 38 -26 38 C-26.99 38.5 -26.99 38.5 -28 39 C-26.43 34.27 -23.79 30.66 -20.88 26.69 C-20.17 25.72 -20.17 25.72 -19.46 24.73 C-18.31 23.15 -17.16 21.58 -16 20 C-15.34 20.33 -14.68 20.66 -14 21 C-9.38 14.07 -4.76 7.14 0 0 Z " fill="#51869F" transform="translate(632,851)"/>
<path d="M0 0 C0.33 0.66 0.66 1.32 1 2 C0.59 2.46 0.18 2.92 -0.24 3.39 C-0.78 4 -1.32 4.62 -1.88 5.25 C-2.41 5.85 -2.94 6.46 -3.49 7.08 C-5.06 8.9 -5.06 8.9 -5.81 10.94 C-7.58 14 -10.3 15.74 -13.12 17.75 C-13.69 18.16 -14.25 18.57 -14.83 19 C-16.22 20 -17.61 21 -19 22 C-19.33 21.34 -19.66 20.68 -20 20 C-20.66 19.67 -21.32 19.34 -22 19 C-21.55 18.62 -21.11 18.25 -20.64 17.86 C-17.89 15.53 -15.21 13.22 -12.69 10.62 C-8.72 6.75 -4.36 3.41 0 0 Z " fill="#145C83" transform="translate(1097,364)"/>
<path d="M0 0 C1 3 1 3 0.17 4.81 C-0.27 5.46 -0.71 6.12 -1.17 6.8 C-1.89 7.9 -1.89 7.9 -2.63 9.01 C-3.14 9.77 -3.66 10.53 -4.19 11.31 C-4.93 12.43 -4.93 12.43 -5.69 13.58 C-6.66 15.04 -7.64 16.5 -8.63 17.96 C-9.5 19.25 -10.35 20.54 -11.18 21.85 C-13.77 25.91 -13.77 25.91 -16.25 26.88 C-16.83 26.92 -17.4 26.96 -18 27 C-15.87 21.32 -12.74 16.4 -9.56 11.25 C-8.98 10.28 -8.39 9.31 -7.79 8.31 C-7.22 7.39 -6.65 6.47 -6.07 5.52 C-5.55 4.67 -5.03 3.83 -4.5 2.96 C-3 1 -3 1 0 0 Z " fill="#125A82" transform="translate(595,906)"/>
<path d="M0 0 C0 4.19 -2.28 6.27 -4.81 9.38 C-5.3 9.99 -5.79 10.6 -6.29 11.23 C-11.41 17.58 -16.68 23.81 -22 30 C-22.33 29.01 -22.66 28.02 -23 27 C-21.38 24.62 -21.38 24.62 -19.12 22 C-15.96 18.35 -15.96 18.35 -14 14 C-13.36 13.53 -12.72 13.05 -12.06 12.56 C-9.91 11.18 -9.91 11.18 -9.13 9.14 C-7.76 6.54 -6.12 5.13 -3.88 3.25 C-3.15 2.64 -2.43 2.02 -1.68 1.39 C-1.13 0.93 -0.57 0.47 0 0 Z " fill="#5B8CA3" transform="translate(745,702)"/>
<path d="M0 0 C0.66 0 1.32 0 2 0 C0.85 6.57 -3.8 10.28 -9 14 C-10.33 14.34 -11.66 14.68 -13 15 C-14.74 16.38 -14.74 16.38 -16.25 18.06 C-16.77 18.61 -17.29 19.16 -17.83 19.72 C-18.41 20.35 -18.41 20.35 -19 21 C-19.66 20.67 -20.32 20.34 -21 20 C-19.72 18.29 -18.38 16.63 -17 15 C-16.34 15 -15.68 15 -15 15 C-14.78 14.44 -14.57 13.87 -14.34 13.29 C-12.55 10.24 -10.27 8.56 -7.5 6.38 C-3.62 3.33 -3.62 3.33 0 0 Z " fill="#2B6B8D" transform="translate(943,491)"/>
<path d="M0 0 C2 1 2 1 3 2 C3.66 2.33 4.32 2.66 5 3 C2.42 4.63 -0.17 6.25 -2.75 7.88 C-3.48 8.34 -4.21 8.8 -4.96 9.27 C-6.02 9.94 -6.02 9.94 -7.11 10.62 C-7.76 11.03 -8.41 11.43 -9.08 11.85 C-11.01 13.01 -12.98 14.02 -15 15 C-14.93 12.04 -14.81 9.81 -12.64 7.65 C-10.83 6.35 -8.98 5.19 -7.06 4.06 C-6.42 3.65 -5.77 3.24 -5.1 2.82 C-3.45 1.8 -1.73 0.89 0 0 Z " fill="#88ABB8" transform="translate(806,1601)"/>
<path d="M0 0 C0.66 0.33 1.32 0.66 2 1 C-0.97 3.97 -3.94 6.94 -7 10 C-7 7 -7 7 -5.47 5.18 C-4.82 4.56 -4.17 3.95 -3.5 3.31 C-2.85 2.69 -2.2 2.07 -1.53 1.43 C-0.77 0.72 -0.77 0.72 0 0 Z M-13 12 C-12.01 12.33 -11.02 12.66 -10 13 C-10.6 13.56 -11.2 14.11 -11.81 14.69 C-14.06 16.86 -14.06 16.86 -15.25 19.38 C-17.78 23.18 -21.27 25.43 -25 28 C-25.99 27.34 -26.98 26.68 -28 26 C-23.05 21.38 -18.1 16.76 -13 12 Z " fill="#C3D4D4" transform="translate(1159,458)"/>
<path d="M0 0 C0.66 0.33 1.32 0.66 2 1 C-2.35 3.34 -6.71 5.67 -11.07 7.98 C-12.74 8.86 -14.41 9.75 -16.08 10.64 C-16.94 11.09 -17.8 11.54 -18.69 12 C-19.43 12.39 -20.18 12.78 -20.95 13.19 C-23 14 -23 14 -27 14 C-27 14.66 -27 15.32 -27 16 C-28.79 16.86 -30.58 17.72 -32.38 18.56 C-33.37 19.04 -34.37 19.51 -35.4 20 C-36.26 20.33 -37.12 20.66 -38 21 C-38.66 20.67 -39.32 20.34 -40 20 C-39.22 19.6 -38.44 19.2 -37.63 18.79 C-36.62 18.26 -35.61 17.73 -34.56 17.19 C-33.55 16.67 -32.54 16.14 -31.5 15.61 C-28.71 14.19 -28.71 14.19 -28 11 C-25.29 9.89 -22.75 9.1 -19.84 8.7 C-14.91 7.48 -10.5 4.97 -5.97 2.71 C-5.24 2.35 -4.5 1.99 -3.74 1.62 C-3.07 1.28 -2.4 0.95 -1.71 0.6 C-1.14 0.41 -0.58 0.21 0 0 Z " fill="#5689A1" transform="translate(968,1507)"/>
<path d="M0 0 C7.48 1.23 14.72 2.89 22 5 C22 5.66 22 6.32 22 7 C22.66 7.66 23.32 8.32 24 9 C17.12 8.12 17.12 8.12 16 7 C12.94 6.34 9.88 5.76 6.81 5.19 C2.74 4.42 -1.1 3.4 -5 2 C-4.01 1.67 -3.02 1.34 -2 1 C-1.34 1.33 -0.68 1.66 0 2 C0 1.34 0 0.68 0 0 Z " fill="#6492A7" transform="translate(1085,1502)"/>
<path d="M0 0 C0 3 0 3 -1.5 4.76 C-2.18 5.4 -2.86 6.03 -3.56 6.69 C-6.24 9.27 -8.79 11.84 -11.19 14.69 C-16.43 20.8 -22.27 26.35 -28 32 C-28.66 31.67 -29.32 31.34 -30 31 C-20.19 20.47 -10.25 10.11 0 0 Z " fill="#195F85" transform="translate(879,556)"/>
<path d="M0 0 C-1.39 4.18 -3.53 4.66 -7.38 6.69 C-8.54 7.31 -9.7 7.93 -10.9 8.57 C-14 10 -14 10 -17 10 C-17.66 11.65 -18.32 13.3 -19 15 C-19.99 14.67 -20.98 14.34 -22 14 C-21.09 10.03 -19.52 8.42 -16.19 6.31 C-13.2 4.59 -10.26 3.14 -7 2 C-6.11 1.63 -5.23 1.26 -4.31 0.88 C-2 0 -2 0 0 0 Z " fill="#E7ECE4" transform="translate(1484,1250)"/>
<path d="M0 0 C0.78 1.65 0.78 1.65 1 4 C-0.81 6.63 -0.81 6.63 -3.44 9.56 C-4.36 10.62 -5.29 11.68 -6.21 12.74 C-6.67 13.28 -7.14 13.81 -7.62 14.37 C-11 18.38 -13.98 22.71 -17 27 C-17.99 26.67 -18.98 26.34 -20 26 C-13.47 17.22 -6.93 8.47 0 0 Z " fill="#99B7C0" transform="translate(721,730)"/>
<path d="M0 0 C4.29 7.52 3.15 17.6 3 26 C2.01 26.33 1.02 26.66 0 27 C-0.66 18.42 -1.32 9.84 -2 1 C-1.34 0.67 -0.68 0.34 0 0 Z " fill="#155C83" transform="translate(1341,326)"/>
<path d="M0 0 C0 0.33 0 0.66 0 1 C-1.58 1.16 -1.58 1.16 -3.18 1.33 C-10.04 2.09 -16.56 2.82 -23.05 5.28 C-25.06 6.02 -27.05 6.56 -29.12 7.06 C-32.79 7.95 -36.38 8.95 -40 10 C-39 7 -39 7 -36.44 5.38 C-33.29 4.12 -30.67 3.62 -27.32 3.32 C-24.56 2.94 -21.99 2.2 -19.31 1.44 C-12.83 -0.27 -6.66 -0.29 0 0 Z " fill="#5D8EA5" transform="translate(1288,235)"/>
<path d="M0 0 C-0.67 0.39 -1.33 0.78 -2.02 1.18 C-8.5 5.11 -13.9 9.51 -19.41 14.68 C-22.76 17.68 -26.03 19.91 -30 22 C-30.66 21.67 -31.32 21.34 -32 21 C-31.47 20.6 -30.93 20.2 -30.38 19.79 C-26.09 16.51 -22.01 13.13 -18.06 9.44 C-5.64 -1.88 -5.64 -1.88 0 0 Z " fill="#185E85" transform="translate(1002,1485)"/>
<path d="M0 0 C0.99 0.33 1.98 0.66 3 1 C2.67 3.97 2.34 6.94 2 10 C1.34 10 0.68 10 0 10 C-0.08 10.78 -0.17 11.57 -0.25 12.38 C-1.24 17.18 -3.09 21.5 -5 26 C-6.56 20.93 -4.83 16.96 -2.81 12.19 C-2.54 11.47 -2.28 10.74 -2 10 C-2.33 9.34 -2.66 8.68 -3 8 C-2.44 6.05 -2.44 6.05 -1.56 3.88 C-1.28 3.15 -0.99 2.43 -0.69 1.68 C-0.35 0.85 -0.35 0.85 0 0 Z " fill="#3A7694" transform="translate(489,1436)"/>
<path d="M0 0 C0.33 0.66 0.66 1.32 1 2 C1.66 2.33 2.32 2.66 3 3 C-5.25 11.25 -13.5 19.5 -22 28 C-22 25 -22 25 -20.36 23.07 C-19.62 22.36 -18.87 21.64 -18.1 20.91 C-17.29 20.13 -16.48 19.34 -15.65 18.53 C-13.93 16.89 -12.21 15.25 -10.49 13.6 C-9.68 12.82 -8.87 12.03 -8.04 11.22 C-7.29 10.51 -6.54 9.79 -5.77 9.06 C-3.94 6.92 -3.51 5.7 -3 3 C-1.44 1.25 -1.44 1.25 0 0 Z " fill="#417A98" transform="translate(903,529)"/>
<path d="M0 0 C0.74 0.08 1.48 0.16 2.25 0.25 C2.12 2 2.12 2 1.25 4.25 C-3.97 8.25 -3.97 8.25 -6.75 8.25 C-7.08 9.24 -7.41 10.23 -7.75 11.25 C-10.31 12.44 -10.31 12.44 -12.75 13.25 C-12.75 12.26 -12.75 11.27 -12.75 10.25 C-12.13 10 -11.51 9.75 -10.88 9.5 C-8.32 8 -7.99 6.88 -6.75 4.25 C-3.59 0.33 -3.59 0.33 0 0 Z " fill="#3B7695" transform="translate(1161.75,726.75)"/>
<path d="M0 0 C0 0.66 0 1.32 0 2 C-2.08 2.84 -4.16 3.67 -6.25 4.5 C-7.41 4.96 -8.57 5.43 -9.77 5.91 C-13 7 -13 7 -17 7 C-17.33 6.01 -17.66 5.02 -18 4 C-6.66 -0.59 -6.66 -0.59 0 0 Z " fill="#377493" transform="translate(1291,1501)"/>
<path d="M0 0 C0.99 0.33 1.98 0.66 3 1 C2.21 1.77 1.43 2.55 0.62 3.34 C-0.44 4.4 -1.5 5.45 -2.56 6.5 C-3.11 7.04 -3.66 7.59 -4.22 8.15 C-7.9 11.82 -11.35 15.6 -14.6 19.67 C-16 21 -16 21 -19 21 C-14.83 16.07 -10.54 11.28 -6.12 6.56 C-5.53 5.93 -4.94 5.29 -4.33 4.63 C-2.89 3.09 -1.44 1.54 0 0 Z " fill="#C9D8D6" transform="translate(853,580)"/>
<path d="M0 0 C0.66 0.33 1.32 0.66 2 1 C1.38 3.69 0.75 6.38 0.12 9.06 C-0.14 10.19 -0.14 10.19 -0.4 11.34 C-1.48 15.94 -2.67 20.47 -4 25 C-4.66 25 -5.32 25 -6 25 C-5.53 16.21 -2.76 8.29 0 0 Z " fill="#5386A0" transform="translate(470,1137)"/>
<path d="M0 0 C7.26 0.18 14.06 1.61 21.06 3.44 C21.91 3.65 22.75 3.87 23.62 4.1 C24.42 4.31 25.22 4.53 26.04 4.75 C26.75 4.94 27.47 5.13 28.2 5.33 C30 6 30 6 32 8 C21.13 6.52 10.61 3.75 0 1 C0 0.67 0 0.34 0 0 Z " fill="#4F849E" transform="translate(703,1608)"/>
<path d="M0 0 C0.99 0.33 1.98 0.66 3 1 C0.75 3.5 0.75 3.5 -2 6 C-3.32 6 -4.64 6 -6 6 C-6 6.99 -6 7.98 -6 9 C-8.31 9.66 -10.62 10.32 -13 11 C-12.67 9.68 -12.34 8.36 -12 7 C-11.34 7 -10.68 7 -10 7 C-10 6.34 -10 5.68 -10 5 C-6.27 2.97 -4.33 2 0 2 C0 1.34 0 0.68 0 0 Z " fill="#D7E1DC" transform="translate(1128,1277)"/>
<path d="M0 0 C0.66 0.33 1.32 0.66 2 1 C-0.31 3.31 -2.62 5.62 -5 8 C-4.34 8.66 -3.68 9.32 -3 10 C-6.98 11.72 -10.96 13.41 -15 15 C-10.84 8.72 -6.12 4.35 0 0 Z " fill="#3A7694" transform="translate(1036,412)"/>
<path d="M0 0 C0.33 0.66 0.66 1.32 1 2 C0.01 2.5 0.01 2.5 -1 3 C-1.27 3.76 -1.53 4.51 -1.8 5.29 C-3.31 8.7 -5.17 10.08 -8.12 12.31 C-9.04 13.01 -9.95 13.71 -10.88 14.43 C-11.58 14.95 -12.28 15.46 -13 16 C-13.66 15.34 -14.32 14.68 -15 14 C-14.34 14 -13.68 14 -13 14 C-12.67 13.01 -12.34 12.02 -12 11 C-10.36 9.31 -8.69 7.65 -7 6 C-6.48 5.28 -5.97 4.56 -5.44 3.81 C-3.82 1.77 -2.39 0.99 0 0 Z " fill="#2A6B8D" transform="translate(1173,305)"/>
<path d="M0 0 C1.44 3.8 0.52 6.13 -0.87 9.86 C-1.28 10.97 -1.69 12.09 -2.11 13.24 C-2.55 14.4 -2.99 15.56 -3.44 16.75 C-4.09 18.51 -4.09 18.51 -4.75 20.31 C-5.83 23.21 -6.91 26.11 -8 29 C-9.07 25.32 -8.76 23.64 -7.31 20.06 C-5.2 14.63 -3.48 9.14 -1.83 3.55 C-1 1 -1 1 0 0 Z " fill="#417A98" transform="translate(477,1477)"/>
<path d="M0 0 C1.14 3.43 0.83 4.32 -0.21 7.67 C-0.49 8.56 -0.76 9.45 -1.04 10.37 C-1.34 11.3 -1.63 12.23 -1.94 13.19 C-2.23 14.13 -2.52 15.07 -2.82 16.04 C-3.54 18.36 -4.27 20.68 -5 23 C-5.66 23 -6.32 23 -7 23 C-4.49 7.76 -4.49 7.76 -2 1 C-1.34 0.67 -0.68 0.34 0 0 Z " fill="#769FB0" transform="translate(484,1092)"/>
<path d="M0 0 C0.33 0.66 0.66 1.32 1 2 C-2.39 5.47 -5.89 8.71 -9.62 11.81 C-10.57 12.6 -11.51 13.39 -12.48 14.21 C-15 16 -15 16 -18 16 C-14.21 11.02 -10.06 7.63 -5 4 C-3.33 2.68 -1.66 1.35 0 0 Z " fill="#B7CBCE" transform="translate(1097,364)"/>
<path d="M0 0 C0.99 1.32 1.98 2.64 3 4 C1.64 6.99 0.05 9.29 -2.12 11.75 C-2.93 12.67 -2.93 12.67 -3.76 13.61 C-4.17 14.07 -4.58 14.53 -5 15 C-5.66 14.67 -6.32 14.34 -7 14 C-6.02 11.81 -5.26 10.23 -3.44 8.62 C-1.38 6.3 -1.39 4.01 -1 1 C-0.67 0.67 -0.34 0.34 0 0 Z M-4 5 C-3.34 5.33 -2.68 5.66 -2 6 C-3.98 6.99 -3.98 6.99 -6 8 C-5.34 7.01 -4.68 6.02 -4 5 Z " fill="#226589" transform="translate(830,602)"/>
<path d="M0 0 C0.66 0.66 1.32 1.32 2 2 C0.38 4.13 -1.25 6.25 -2.88 8.38 C-3.34 8.98 -3.8 9.58 -4.27 10.2 C-6.09 12.58 -7.88 14.88 -10 17 C-10 12.24 -8.38 10.35 -5.56 6.81 C-5.14 6.27 -4.72 5.72 -4.29 5.16 C-1.3 1.3 -1.3 1.3 0 0 Z " fill="#B0C6CA" transform="translate(579,1067)"/>
<path d="M0 0 C0.66 0.33 1.32 0.66 2 1 C0.04 3.63 -1.92 6.25 -3.88 8.88 C-4.43 9.62 -4.99 10.37 -5.56 11.14 C-6.09 11.85 -6.63 12.57 -7.18 13.3 C-7.67 13.96 -8.16 14.62 -8.67 15.3 C-10 17 -10 17 -12 19 C-11.5 14.25 -9.46 11.54 -6.56 7.81 C-5.76 6.77 -4.96 5.72 -4.13 4.64 C-2 2 -2 2 0 0 Z " fill="#A6C0C6" transform="translate(662,809)"/>
<path d="M0 0 C0.66 0.33 1.32 0.66 2 1 C-1.57 5.51 -4.86 9.32 -10 12 C-12.18 11.59 -12.18 11.59 -14 11 C-13.07 10.29 -12.15 9.58 -11.19 8.85 C-9.98 7.92 -8.77 6.99 -7.56 6.06 C-6.95 5.59 -6.34 5.13 -5.71 4.64 C-2.75 2.44 -2.75 2.44 0 0 Z " fill="#DCE5DF" transform="translate(1199,700)"/>
<path d="M0 0 C0.66 0 1.32 0 2 0 C1.86 2.23 1.71 4.46 1.56 6.69 C1.48 7.93 1.4 9.17 1.32 10.45 C1.06 13.38 0.65 16.13 0 19 C-0.33 19 -0.66 19 -1 19 C-1.22 16.96 -1.43 14.92 -1.62 12.88 C-1.74 11.74 -1.86 10.6 -1.98 9.43 C-2 5.83 -1.32 3.32 0 0 Z " fill="#357292" transform="translate(1341,392)"/>
<path d="M0 0 C0.99 0 1.98 0 3 0 C2.72 1.42 2.42 2.83 2.12 4.25 C1.96 5.04 1.8 5.83 1.63 6.64 C1.01 8.97 0.15 10.89 -1 13 C-1.99 13 -2.98 13 -4 13 C-3.52 11.4 -3.04 9.79 -2.56 8.19 C-2.3 7.29 -2.03 6.4 -1.75 5.48 C-1.2 3.65 -0.61 1.82 0 0 Z " fill="#D2DEDA" transform="translate(472,1482)"/>
<path d="M0 0 C0.66 0.66 1.32 1.32 2 2 C1.49 2.5 0.98 2.99 0.46 3.5 C-3.93 7.84 -8.05 12.26 -12 17 C-12.33 16.34 -12.66 15.68 -13 15 C-12.56 14.5 -12.13 14.01 -11.68 13.5 C-7.76 9.02 -3.86 4.52 0 0 Z " fill="#89ACB9" transform="translate(821,617)"/>
<path d="M0 0 C6.6 0.66 13.2 1.32 20 2 C20 2.33 20 2.66 20 3 C18.39 3.22 18.39 3.22 16.75 3.44 C14.08 3.84 11.59 4.28 9 5 C9 4.34 9 3.68 9 3 C6.69 3 4.38 3 2 3 C2 2.34 2 1.68 2 1 C1.34 0.67 0.68 0.34 0 0 Z " fill="#6C98AC" transform="translate(1145,1515)"/>
<path d="M0 0 C1.53 0.09 3.05 0.25 4.56 0.44 C5.8 0.59 5.8 0.59 7.07 0.75 C7.7 0.83 8.34 0.91 9 1 C9 1.66 9 2.32 9 3 C10.65 3.33 12.3 3.66 14 4 C11 6 11 6 8.59 5.61 C7.71 5.33 6.84 5.04 5.94 4.75 C5.06 4.48 4.18 4.2 3.28 3.92 C1 3 1 3 -1 1 C-0.67 0.67 -0.34 0.34 0 0 Z " fill="#749EAF" transform="translate(1038,1488)"/>
<path d="M0 0 C-6.37 0.96 -12.56 1.11 -19 1 C-18.67 0.34 -18.34 -0.32 -18 -1 C-12 -2.2 -5.4 -3.45 0 0 Z " fill="#6E99AC" transform="translate(368,1710)"/>
<path d="M0 0 C-3.75 3 -3.75 3 -6 3 C-6 3.99 -6 4.98 -6 6 C-7.79 6.86 -9.58 7.72 -11.38 8.56 C-12.37 9.04 -13.37 9.51 -14.4 10 C-15.26 10.33 -16.12 10.66 -17 11 C-17.66 10.67 -18.32 10.34 -19 10 C-18.22 9.6 -17.44 9.2 -16.63 8.79 C-15.62 8.26 -14.61 7.73 -13.56 7.19 C-12.55 6.67 -11.54 6.14 -10.5 5.61 C-7.71 4.19 -7.71 4.19 -7 1 C-4.06 -0.96 -3.48 -1.16 0 0 Z " fill="#9CB9C1" transform="translate(947,1517)"/>
<path d="M0 0 C0.78 1.64 0.78 1.64 1 4 C-0.87 6.8 -0.87 6.8 -3.44 9.75 C-4.28 10.73 -5.13 11.72 -6 12.73 C-6.66 13.48 -7.32 14.23 -8 15 C-8.78 13.36 -8.78 13.36 -9 11 C-7.13 8.2 -7.13 8.2 -4.56 5.25 C-3.72 4.27 -2.87 3.28 -2 2.27 C-1.34 1.52 -0.68 0.77 0 0 Z " fill="#91B1BC" transform="translate(721,730)"/>
<path d="M0 0 C2.38 3.7 2.21 6.93 2.12 11.25 C2.11 12.51 2.09 13.78 2.07 15.08 C2.05 16.04 2.02 17.01 2 18 C-1.17 14.56 -1.46 11.85 -1.69 7.25 C-1.75 6.08 -1.82 4.91 -1.89 3.7 C-1.92 2.81 -1.96 1.92 -2 1 C-1.34 0.67 -0.68 0.34 0 0 Z " fill="#588AA2" transform="translate(1341,326)"/>
<path d="M0 0 C-1 3 -1 3 -3.25 4.32 C-4.16 4.73 -5.07 5.14 -6 5.56 C-9.71 7.02 -9.71 7.02 -12 10 C-12.66 9.67 -13.32 9.34 -14 9 C-12.54 5.11 -10.7 3.99 -7 2.25 C-6.11 1.82 -5.23 1.39 -4.31 0.95 C-2 0 -2 0 0 0 Z " fill="#DFE6E0" transform="translate(940,1519)"/>
<path d="M0 0 C-2.75 2.75 -6.06 3.75 -9.62 5.12 C-10.33 5.4 -11.04 5.68 -11.77 5.96 C-13.51 6.65 -15.25 7.32 -17 8 C-17.33 7.34 -17.66 6.68 -18 6 C-15.57 4.8 -13.13 3.62 -10.69 2.44 C-10 2.1 -9.31 1.75 -8.6 1.4 C-3.34 -1.11 -3.34 -1.11 0 0 Z " fill="#23668A" transform="translate(1410,1447)"/>
<path d="M0 0 C0.33 0.99 0.66 1.98 1 3 C-1.12 6.85 -2.8 9.46 -7 11 C-7.99 11.5 -7.99 11.5 -9 12 C-7.6 7.55 -5.4 5.14 -2 2 C-1.34 1.34 -0.68 0.68 0 0 Z " fill="#0B557F" transform="translate(607,887)"/>
<path d="M0 0 C0.66 0.33 1.32 0.66 2 1 C2.33 1.99 2.66 2.98 3 4 C-3.62 7.12 -3.62 7.12 -7 6 C-6 3 -6 3 -3.06 1.25 C-2.05 0.84 -1.04 0.42 0 0 Z " fill="#407A97" transform="translate(1329,1481)"/>
<path d="M0 0 C0.66 0.33 1.32 0.66 2 1 C1.71 1.68 1.42 2.36 1.12 3.06 C-0.78 8.04 -2.33 12.62 -2 18 C-2.99 17.67 -3.98 17.34 -5 17 C-4.69 10.38 -3.26 5.78 0 0 Z " fill="#BCCFD0" transform="translate(486,1445)"/>
<path d="M0 0 C-1.5 3.67 -3.64 5.69 -6.62 8.25 C-7.44 8.96 -8.26 9.66 -9.1 10.39 C-9.73 10.92 -10.35 11.45 -11 12 C-11.66 11.34 -12.32 10.68 -13 10 C-11.21 8.33 -9.42 6.66 -7.62 5 C-6.86 4.28 -6.86 4.28 -6.09 3.55 C-2.23 0 -2.23 0 0 0 Z " fill="#145C83" transform="translate(933,504)"/>
<path d="M0 0 C5.78 -0.12 11.28 0.17 17 1 C15 3 15 3 12.79 3.27 C4.15 3.21 4.15 3.21 0 1 C0 0.67 0 0.34 0 0 Z " fill="#7EA4B4" transform="translate(1175,1518)"/>
<path d="M0 0 C-0.33 0.99 -0.66 1.98 -1 3 C-1.99 3.33 -2.98 3.66 -4 4 C-4.85 4.85 -5.69 5.69 -6.56 6.56 C-7.77 7.77 -7.77 7.77 -9 9 C-9.66 9 -10.32 9 -11 9 C-11.33 9.66 -11.66 10.32 -12 11 C-11.69 7.81 -11.43 6.39 -9 4.2 C-8.2 3.7 -7.39 3.2 -6.56 2.69 C-5.76 2.18 -4.96 1.66 -4.13 1.14 C-2 0 -2 0 0 0 Z " fill="#C6D6D5" transform="translate(1267,1273)"/>
<path d="M0 0 C0.75 1.7 0.75 1.7 1 4 C-0.65 6.36 -0.65 6.36 -2.94 8.75 C-4.06 9.95 -4.06 9.95 -5.21 11.17 C-5.8 11.78 -6.39 12.38 -7 13 C-7.33 12.01 -7.66 11.02 -8 10 C-6.35 7.52 -6.35 7.52 -4.06 4.81 C-3.31 3.91 -2.56 3.01 -1.79 2.08 C-1.2 1.39 -0.61 0.71 0 0 Z " fill="#6B98AB" transform="translate(730,719)"/>
<path d="M0 0 C0.56 0.24 1.12 0.47 1.7 0.71 C0.3 1.92 -1.12 3.1 -2.55 4.28 C-3.73 5.27 -3.73 5.27 -4.94 6.28 C-7.3 7.71 -7.3 7.71 -9.59 7.43 C-10.16 7.19 -10.72 6.96 -11.3 6.71 C-9.89 5.51 -8.47 4.33 -7.05 3.15 C-6.26 2.49 -5.47 1.83 -4.66 1.15 C-2.3 -0.29 -2.3 -0.29 0 0 Z " fill="#397594" transform="translate(1185.296875,712.28515625)"/>
<path d="M0 0 C-7.92 3.96 -7.92 3.96 -16 8 C-16 6.68 -16 5.36 -16 4 C-13.9 3.13 -11.8 2.28 -9.69 1.44 C-8.52 0.96 -7.34 0.49 -6.14 -0 C-3 -1 -3 -1 0 0 Z " fill="#1B6186" transform="translate(1260,242)"/>
<path d="M0 0 C2.31 0 4.62 0 7 0 C6.36 0.31 5.72 0.62 5.06 0.94 C3.06 1.83 3.06 1.83 2 3 C0.33 3.04 -1.33 3.04 -3 3 C-3 3.66 -3 4.32 -3 5 C-5.64 4.67 -8.28 4.34 -11 4 C-8.1 2.07 -7.1 1.7 -3.81 1.38 C-2.55 1.25 -1.3 1.13 0 1 C0 0.67 0 0.34 0 0 Z " fill="#5B8CA4" transform="translate(1212,1516)"/>
<path d="M0 0 C0 3 0 3 -2.19 5.48 C-3.12 6.37 -4.04 7.27 -5 8.19 C-5.93 9.09 -6.86 9.99 -7.81 10.92 C-8.53 11.61 -9.26 12.29 -10 13 C-10.66 12.67 -11.32 12.34 -12 12 C-10.72 10.29 -9.38 8.63 -8 7 C-7.34 7 -6.68 7 -6 7 C-5.75 6.4 -5.5 5.8 -5.25 5.19 C-3.84 2.71 -2.35 1.57 0 0 Z " fill="#9CB9C1" transform="translate(934,499)"/>
<path d="M0 0 C0 3.91 -1.51 5.12 -4 8 C-5.32 7.34 -6.64 6.68 -8 6 C-4.55 1.2 -4.55 1.2 -1.75 0.19 C-1.17 0.13 -0.6 0.06 0 0 Z " fill="#28698C" transform="translate(1151,321)"/>
<path d="M0 0 C0.99 0.33 1.98 0.66 3 1 C1.55 3.17 0.09 5.34 -1.38 7.5 C-1.79 8.12 -2.2 8.74 -2.62 9.38 C-3.7 10.96 -4.84 12.48 -6 14 C-6.66 14 -7.32 14 -8 14 C-6.67 10.38 -5.06 7.36 -2.88 4.19 C-2.07 3 -2.07 3 -1.24 1.79 C-0.83 1.2 -0.42 0.61 0 0 Z " fill="#CDDBD8" transform="translate(641,837)"/>
<path d="M0 0 C0.66 0.66 1.32 1.32 2 2 C-0.97 4.97 -3.94 7.94 -7 11 C-7.99 10.67 -8.98 10.34 -10 10 C-6.7 6.7 -3.4 3.4 0 0 Z " fill="#9AB7C1" transform="translate(898,534)"/>
<path d="M0 0 C0.99 0.33 1.98 0.66 3 1 C-0.3 3.97 -3.6 6.94 -7 10 C-7.66 9.67 -8.32 9.34 -9 9 C-6 6 -3 3 0 0 Z " fill="#E5EBE3" transform="translate(986,1490)"/>
<path d="M0 0 C1.32 0.66 2.64 1.32 4 2 C4 2.66 4 3.32 4 4 C2.04 5.39 0.04 6.73 -2 8 C-2.66 6.68 -3.32 5.36 -4 4 C-2.68 2.68 -1.36 1.36 0 0 Z " fill="#457D99" transform="translate(1003,438)"/>
<path d="M0 0 C0 0.33 0 0.66 0 1 C-1.58 1.48 -3.17 1.96 -4.75 2.44 C-6.07 2.84 -6.07 2.84 -7.42 3.25 C-9.61 3.88 -11.79 4.47 -14 5 C-13 2 -13 2 -10.38 0.25 C-6.43 -1.21 -4.06 -0.89 0 0 Z " fill="#457D99" transform="translate(1262,240)"/>
<path d="M0 0 C-0.66 0 -1.32 0 -2 0 C-2 0.66 -2 1.32 -2 2 C-5.96 2.99 -9.92 3.98 -14 5 C-14 4.34 -14 3.68 -14 3 C-12.42 2.3 -10.84 1.61 -9.25 0.94 C-8.37 0.55 -7.49 0.17 -6.58 -0.22 C-3.85 -1.05 -2.63 -0.98 0 0 Z " fill="#1A5F86" transform="translate(1272,235)"/>
<path d="M0 0 C0.66 0.33 1.32 0.66 2 1 C0.61 2.47 -0.78 3.92 -2.19 5.38 C-2.96 6.19 -3.74 7 -4.54 7.84 C-6.99 9.99 -8.93 11.01 -12 12 C-11.26 11.28 -10.51 10.56 -9.75 9.81 C-7.01 7.11 -7.01 7.11 -4.88 4.31 C-3 2 -3 2 0 0 Z " fill="#D1DDDA" transform="translate(549,1350)"/>
<path d="M0 0 C0.66 0.33 1.32 0.66 2 1 C1.67 1.99 1.34 2.98 1 4 C0.34 4 -0.32 4 -1 4 C-1.33 4.99 -1.66 5.98 -2 7 C-3.65 7.33 -5.3 7.66 -7 8 C-7.33 7.01 -7.66 6.02 -8 5 C-7.01 5 -6.02 5 -5 5 C-5 4.34 -5 3.68 -5 3 C-2.62 1.31 -2.62 1.31 0 0 Z " fill="#D9E2DD" transform="translate(932,1303)"/>
<path d="M0 0 C0.66 0.33 1.32 0.66 2 1 C1 4.69 0.31 5.81 -3 7.88 C-3.99 8.25 -4.98 8.62 -6 9 C-6.66 8.67 -7.32 8.34 -8 8 C-5.36 5.36 -2.72 2.72 0 0 Z " fill="#729CAE" transform="translate(920,512)"/>
<path d="M0 0 C0.95 2.17 1.14 3.56 0.4 5.82 C-0.36 7.57 -1.18 9.29 -2 11 C-2.99 10.34 -3.98 9.68 -5 9 C-3.75 5.54 -2.32 2.85 0 0 Z " fill="#28698C" transform="translate(616,871)"/>
<path d="M0 0 C0.99 0.33 1.98 0.66 3 1 C1.71 2.65 0.42 4.29 -0.88 5.94 C-1.95 7.31 -1.95 7.31 -3.05 8.71 C-5 11 -5 11 -7 12 C-5.44 7.33 -2.92 3.91 0 0 Z " fill="#6F9AAD" transform="translate(700,757)"/>
<path d="M0 0 C-1.65 0.66 -3.3 1.32 -5 2 C-4.01 2.66 -3.02 3.32 -2 4 C-4.64 4.33 -7.28 4.66 -10 5 C-10.33 4.01 -10.66 3.02 -11 2 C-9.73 1.47 -8.46 0.95 -7.19 0.44 C-6.48 0.15 -5.77 -0.14 -5.04 -0.44 C-3 -1 -3 -1 0 0 Z " fill="#3F7997" transform="translate(1284,1503)"/>
<path d="M0 0 C0.33 0.99 0.66 1.98 1 3 C-0.21 4.82 -0.21 4.82 -1.94 6.69 C-2.5 7.31 -3.07 7.93 -3.65 8.57 C-4.1 9.04 -4.54 9.52 -5 10 C-5.99 9.34 -6.98 8.68 -8 8 C-5.36 5.36 -2.72 2.72 0 0 Z " fill="#1F6388" transform="translate(892,537)"/>
<path d="M0 0 C0.66 0.66 1.32 1.32 2 2 C0.59 3.15 -0.83 4.3 -2.25 5.44 C-3.43 6.39 -3.43 6.39 -4.64 7.37 C-6.86 8.91 -8.37 9.57 -11 10 C-7.55 6.41 -3.81 3.21 0 0 Z " fill="#377393" transform="translate(981,1497)"/>
<path d="M0 0 C0.99 0.33 1.98 0.66 3 1 C-0.96 4.46 -0.96 4.46 -5 8 C-5.33 6.68 -5.66 5.36 -6 4 C-3.19 1.94 -3.19 1.94 0 0 Z " fill="#3A7594" transform="translate(527,1367)"/>
<path d="M0 0 C0.99 0 1.98 0 3 0 C2.67 1.32 2.34 2.64 2 4 C1.36 4.1 0.72 4.21 0.06 4.31 C-0.62 4.54 -1.3 4.77 -2 5 C-2.33 5.99 -2.66 6.98 -3 8 C-3.99 7.34 -4.98 6.68 -6 6 C-4 4 -2 2 0 0 Z " fill="#216489" transform="translate(1263,1276)"/>
<path d="M0 0 C0.33 0.66 0.66 1.32 1 2 C1.66 2.33 2.32 2.66 3 3 C0.03 5.48 0.03 5.48 -3 8 C-3.75 6.25 -3.75 6.25 -4 4 C-2.06 1.75 -2.06 1.75 0 0 Z " fill="#5E8EA5" transform="translate(903,529)"/>
<path d="M0 0 C0.99 0.33 1.98 0.66 3 1 C2.5 4.69 1.9 6.6 -1 9 C-1.1 2.85 -1.1 2.85 -1 1 C-0.67 0.67 -0.34 0.34 0 0 Z " fill="#1F6388" transform="translate(489,1436)"/>
<path d="M0 0 C-1.58 4.27 -4.51 6.27 -8 9 C-8 6 -8 6 -6.76 4.39 C-5.95 3.61 -5.95 3.61 -5.12 2.81 C-4.59 2.28 -4.06 1.75 -3.51 1.21 C-2 0 -2 0 0 0 Z " fill="#9EBAC2" transform="translate(843,593)"/>
<path d="M0 0 C0.99 0 1.98 0 3 0 C3.37 5.42 3.37 5.42 1.5 8.38 C1 8.91 0.51 9.45 0 10 C-1.12 3.38 -1.12 3.38 0 0 Z " fill="#759EB0" transform="translate(438,1576)"/>
<path d="M0 0 C0.78 0.04 1.57 0.08 2.38 0.12 C2.38 0.79 2.38 1.44 2.38 2.12 C4.36 2.79 6.34 3.44 8.38 4.12 C4.82 5.31 3.68 4.82 0.19 3.69 C-0.71 3.4 -1.61 3.11 -2.54 2.82 C-3.23 2.59 -3.92 2.36 -4.62 2.12 C-2.62 0.12 -2.62 0.12 0 0 Z " fill="#50859E" transform="translate(1070.625,1497.875)"/>
<path d="M0 0 C0.99 0.66 1.98 1.32 3 2 C0.36 3.98 -2.28 5.96 -5 8 C-5 5 -5 5 -2.5 2.31 C-1.67 1.55 -0.85 0.79 0 0 Z " fill="#6C98AB" transform="translate(1159,727)"/>
<path d="M0 0 C-1.5 4.21 -4.29 5.74 -8 8 C-8 7.01 -8 6.02 -8 5 C-2.65 0 -2.65 0 0 0 Z " fill="#709BAD" transform="translate(1015,433)"/>
<path d="M0 0 C1.32 0.66 2.64 1.32 4 2 C2.71 3.38 1.37 4.71 0 6 C-0.66 6 -1.32 6 -2 6 C-2 5.34 -2 4.68 -2 4 C-2.66 3.67 -3.32 3.34 -4 3 C-2.68 2.01 -1.36 1.02 0 0 Z " fill="#9EBAC2" transform="translate(337,1655)"/>
<path d="M0 0 C0.66 0.33 1.32 0.66 2 1 C1.67 1.99 1.34 2.98 1 4 C-2.56 5.69 -2.56 5.69 -6 7 C-6 6.01 -6 5.02 -6 4 C-3 1.81 -3 1.81 0 0 Z " fill="#DFE7E0" transform="translate(798,1606)"/>
<path d="M0 0 C4.45 0.99 4.45 0.99 9 2 C5 3 5 3 2 2 C1.67 2.66 1.34 3.32 1 4 C-0.98 3.34 -2.96 2.68 -5 2 C-4.01 1.67 -3.02 1.34 -2 1 C-1.34 1.33 -0.68 1.66 0 2 C0 1.34 0 0.68 0 0 Z " fill="#A3BEC5" transform="translate(1085,1502)"/>
<path d="M0 0 C0.75 1.75 0.75 1.75 1 4 C-0.94 6.25 -0.94 6.25 -3 8 C-3.66 7.67 -4.32 7.34 -5 7 C-3.71 4.12 -2.34 2.13 0 0 Z " fill="#9BB8C1" transform="translate(727,877)"/>
<path d="M0 0 C0.66 0.33 1.32 0.66 2 1 C0.95 3.62 0.35 4.79 -2.12 6.25 C-2.74 6.5 -3.36 6.75 -4 7 C-4.66 6.34 -5.32 5.68 -6 5 C-4.02 3.35 -2.04 1.7 0 0 Z " fill="#467E9A" transform="translate(1142,326)"/>
<path d="M0 0 C0.66 0.33 1.32 0.66 2 1 C-1.17 4.54 -3.17 6.59 -8 7 C-6.75 3.24 -5.4 2.83 -2 1 C-1.34 0.67 -0.68 0.34 0 0 Z " fill="#407A97" transform="translate(1163,313)"/>
<path d="M0 0 C0.66 0.33 1.32 0.66 2 1 C-3.14 6.57 -3.14 6.57 -7 7 C-5.56 3.19 -3.65 1.73 0 0 Z " fill="#EDF0E7" transform="translate(967,1504)"/>
<path d="M0 0 C1.12 3.3 0.9 5.05 -0.44 8.25 C-0.72 8.96 -1.01 9.66 -1.31 10.39 C-1.54 10.92 -1.76 11.45 -2 12 C-2.33 12 -2.66 12 -3 12 C-2.89 10.56 -2.76 9.12 -2.62 7.69 C-2.56 6.89 -2.49 6.09 -2.41 5.26 C-2 3 -2 3 0 0 Z " fill="#23668A" transform="translate(477,1477)"/>
<path d="M0 0 C0.66 0.33 1.32 0.66 2 1 C1.01 4.96 0.02 8.92 -1 13 C-1.33 13 -1.66 13 -2 13 C-2.05 11.4 -2.09 9.79 -2.12 8.19 C-2.15 7.29 -2.17 6.4 -2.2 5.48 C-2 3 -2 3 0 0 Z " fill="#6493A8" transform="translate(495,1423)"/>
<path d="M0 0 C1.32 0.33 2.64 0.66 4 1 C4 1.99 4 2.98 4 4 C1.69 4.66 -0.62 5.32 -3 6 C-2.67 4.68 -2.34 3.36 -2 2 C-1.34 2 -0.68 2 0 2 C0 1.34 0 0.68 0 0 Z " fill="#E1E8E1" transform="translate(1118,1282)"/>
<path d="M0 0 C0.33 0.99 0.66 1.98 1 3 C0 4.82 0 4.82 -1.44 6.69 C-1.91 7.31 -2.38 7.93 -2.87 8.57 C-3.24 9.04 -3.62 9.52 -4 10 C-4.66 9.34 -5.32 8.68 -6 8 C-4.02 5.36 -2.04 2.72 0 0 Z " fill="#D5E0DC" transform="translate(649,826)"/>
<path d="M0 0 C0.33 0.99 0.66 1.98 1 3 C-1.47 4.49 -1.47 4.49 -4 6 C-4 5.34 -4 4.68 -4 4 C-4.66 3.67 -5.32 3.34 -6 3 C-3.86 0.86 -2.87 0.57 0 0 Z " fill="#3B7695" transform="translate(1081,380)"/>
<path d="M0 0 C0.33 0.66 0.66 1.32 1 2 C-1.31 4.5 -1.31 4.5 -4 7 C-4.99 7 -5.98 7 -7 7 C-4.78 4.09 -3.07 2.05 0 0 Z " fill="#81A6B5" transform="translate(1097,364)"/>
<path d="M0 0 C0.66 0 1.32 0 2 0 C1.01 3.3 0.02 6.6 -1 10 C-1.66 9.67 -2.32 9.34 -3 9 C-2.01 6.03 -1.02 3.06 0 0 Z " fill="#337191" transform="translate(426,1535)"/>
<path d="M0 0 C0.33 0.66 0.66 1.32 1 2 C1.99 1.67 2.98 1.34 4 1 C4 1.66 4 2.32 4 3 C1.03 4.32 -1.94 5.64 -5 7 C-5 5 -5 5 -3.62 3.38 C-2 2 -2 2 0 2 C0 1.34 0 0.68 0 0 Z " fill="#165C84" transform="translate(1321,1485)"/>
<path d="M0 0 C0.66 0.66 1.32 1.32 2 2 C1.62 4.62 1.62 4.62 1 7 C-0.32 6.67 -1.64 6.34 -3 6 C-2.43 3.13 -2.14 2.14 0 0 Z " fill="#357292" transform="translate(503,1402)"/>
<path d="M0 0 C0.66 0.99 1.32 1.98 2 3 C1.16 6.43 0.51 8.49 -2 11 C-1.12 3.38 -1.12 3.38 0 0 Z " fill="#BED0D1" transform="translate(485,1083)"/>
<path d="M0 0 C0 0.66 0 1.32 0 2 C-2.81 4.69 -2.81 4.69 -6 7 C-6.99 6.67 -7.98 6.34 -9 6 C-7.88 4.99 -6.75 4 -5.62 3 C-4.69 2.16 -4.69 2.16 -3.73 1.31 C-2 0 -2 0 0 0 Z " fill="#135B83" transform="translate(1159,320)"/>
<path d="M0 0 C-2.97 1.65 -5.94 3.3 -9 5 C-9 4.01 -9 3.02 -9 2 C-3.38 -1.12 -3.38 -1.12 0 0 Z " fill="#28698C" transform="translate(1002,1485)"/>
<path d="M0 0 C0.99 0.33 1.98 0.66 3 1 C2.67 1.99 2.34 2.98 2 4 C0.02 4.33 -1.96 4.66 -4 5 C-2.25 1.12 -2.25 1.12 0 0 Z " fill="#1E6388" transform="translate(1482,1424)"/>
<path d="M0 0 C0.99 0.33 1.98 0.66 3 1 C-0.47 3.97 -0.47 3.97 -4 7 C-4 4 -4 4 -2 1.81 C-1.34 1.21 -0.68 0.62 0 0 Z " fill="#397594" transform="translate(848,588)"/>
<path d="M0 0 C0.66 0.33 1.32 0.66 2 1 C2 1.66 2 2.32 2 3 C-0.31 4.12 -0.31 4.12 -3 5 C-3.99 4.34 -4.98 3.68 -6 3 C-4.04 1.93 -2.03 0.93 0 0 Z " fill="#407A97" transform="translate(1342,1476)"/>
<path d="M0 0 C0.66 0.33 1.32 0.66 2 1 C1.67 1.99 1.34 2.98 1 4 C-2.06 5.19 -2.06 5.19 -5 6 C-2.25 1.12 -2.25 1.12 0 0 Z " fill="#1E6287" transform="translate(1348,1472)"/>
<path d="M0 0 C1.04 3.13 0.93 3.99 0 7 C-1.32 7.33 -2.64 7.66 -4 8 C-2.88 5.03 -1.78 2.67 0 0 Z " fill="#1E6388" transform="translate(581,925)"/>
<path d="M0 0 C0.99 0.33 1.98 0.66 3 1 C1.25 3.06 1.25 3.06 -1 5 C-3.25 4.75 -3.25 4.75 -5 4 C-2.69 1.94 -2.69 1.94 0 0 Z " fill="#AFC6CA" transform="translate(1190,707)"/>
<path d="M0 0 C0 0.66 0 1.32 0 2 C-2.31 2.33 -4.62 2.66 -7 3 C-6.67 2.01 -6.34 1.02 -6 0 C-3 -1 -3 -1 0 0 Z " fill="#E1E8E1" transform="translate(1003,1482)"/>
<path d="M0 0 C-2.46 2.46 -4.71 3 -8 4 C-8.33 3.34 -8.66 2.68 -9 2 C-3.38 -1.12 -3.38 -1.12 0 0 Z " fill="#5A8CA3" transform="translate(1410,1447)"/>
<path d="M0 0 C0.66 0 1.32 0 2 0 C2.66 2.31 3.32 4.62 4 7 C3.34 7.66 2.68 8.32 2 9 C0 2.25 0 2.25 0 0 Z " fill="#27688C" transform="translate(1338,319)"/>
</svg>
